<svg width="140" height="48" viewBox="0 0 140 48" fill="none" xmlns="http://www.w3.org/2000/svg">
<path d="M8.98976 47.9975C8.62802 47.9975 8.27502 47.9926 7.91613 47.9841C7.17264 47.9738 6.43089 47.9054 5.69696 47.7794C5.01261 47.6548 4.34966 47.4231 3.72997 47.0919C3.11597 46.7634 2.55595 46.3327 2.07136 45.8162C1.57976 45.3058 1.17049 44.7139 0.859746 44.0638C0.545583 43.4095 0.328164 42.7082 0.215061 41.9843C0.0929205 41.2065 0.0268374 40.4199 0.0173816 39.6315C0.00985434 39.3669 0 38.4857 0 38.4857V9.49828C0 9.49828 0.0104955 8.63068 0.017441 8.37578C0.0264949 7.5886 0.0921938 6.80329 0.213969 6.02664C0.32728 5.30074 0.544868 4.5974 0.8592 3.94098C1.1688 3.29136 1.5758 2.69898 2.06444 2.18678C2.55253 1.66971 3.11434 1.23677 3.72939 0.903746C4.34765 0.573578 5.00935 0.34349 5.69232 0.22119C6.42866 0.0939071 7.17298 0.0250918 7.91905 0.0153216L8.99034 0H131.004L132.088 0.0159364C132.827 0.0252212 133.565 0.0934226 134.294 0.21996C134.984 0.343794 135.653 0.575487 136.278 0.907422C137.51 1.57857 138.513 2.64038 139.145 3.94404C139.455 4.59594 139.669 5.29354 139.781 6.01316C139.904 6.79618 139.973 7.58767 139.987 8.3813C139.991 8.73667 139.991 9.11839 139.991 9.49828C140 9.96885 140 10.4167 140 10.8683V37.1304C140 37.5862 140 38.0311 139.991 38.4796C139.991 38.8876 139.991 39.2614 139.986 39.6462C139.972 40.4257 139.904 41.203 139.783 41.972C139.672 42.7012 139.456 43.4079 139.142 44.0676C138.829 44.7106 138.422 45.2974 137.936 45.8064C137.451 46.3257 136.89 46.7589 136.275 47.0895C135.651 47.4233 134.984 47.6558 134.294 47.7794C133.56 47.9061 132.819 47.9745 132.075 47.9841C131.727 47.9926 131.363 47.9975 131.01 47.9975L129.723 48L8.98976 47.9975Z" fill="#102133"/>
<path d="M34.9905 23.4035C35.0014 22.5309 35.226 21.6753 35.6434 20.9163C36.0608 20.1574 36.6575 19.5197 37.3779 19.0626C36.9202 18.3881 36.3165 17.8331 35.6146 17.4415C34.9127 17.0499 34.1321 16.8326 33.3346 16.8068C31.6334 16.6226 29.9842 17.8574 29.1173 17.8574C28.2337 17.8574 26.899 16.8251 25.4617 16.8556C24.5321 16.8866 23.626 17.1656 22.8319 17.6654C22.0378 18.1652 21.3827 18.8688 20.9304 19.7076C18.9711 23.2083 20.4326 28.3531 22.3094 31.1828C23.2484 32.5685 24.3458 34.1162 25.7817 34.0613C27.1869 34.0012 27.7117 33.1366 29.4079 33.1366C31.0883 33.1366 31.5807 34.0613 33.0458 34.0264C34.5536 34.0012 35.5036 32.6347 36.4096 31.2359C37.0843 30.2486 37.6035 29.1574 37.9479 28.0028C37.0719 27.6204 36.3243 26.9804 35.7984 26.1625C35.2725 25.3446 34.9915 24.3851 34.9905 23.4035V23.4035Z" fill="white"/>
<path d="M32.2245 14.9458C33.0466 13.9272 33.4516 12.6181 33.3536 11.2964C32.0975 11.4325 30.9373 12.052 30.1041 13.0315C29.6967 13.51 29.3847 14.0666 29.1859 14.6696C28.9871 15.2726 28.9054 15.9101 28.9455 16.5457C29.5737 16.5524 30.1952 16.4119 30.7632 16.1347C31.3312 15.8576 31.8308 15.4511 32.2245 14.9458Z" fill="white"/>
<path d="M52.7532 30.5532H47.958L46.8065 34.0623H44.7754L49.3173 21.0796H51.4275L55.9695 34.0623H53.9038L52.7532 30.5532ZM48.4546 28.934H52.2556L50.3819 23.239H50.3294L48.4546 28.934Z" fill="white"/>
<path d="M65.7784 29.3304C65.7784 32.2718 64.2529 34.1616 61.9507 34.1616C61.3676 34.1931 60.7876 34.0545 60.2772 33.7616C59.7668 33.4687 59.3467 33.0334 59.0649 32.5056H59.0213V37.1939H57.1387V24.5971H58.961V26.1715H58.9956C59.2904 25.6461 59.7176 25.2131 60.2319 24.9185C60.7462 24.6238 61.3282 24.4785 61.9161 24.4981C64.2439 24.4981 65.7784 26.3971 65.7784 29.3304ZM63.8433 29.3304C63.8433 27.414 62.8836 26.1541 61.4195 26.1541C59.981 26.1541 59.0134 27.4405 59.0134 29.3304C59.0134 31.2375 59.981 32.5148 61.4195 32.5148C62.8836 32.5148 63.8433 31.2641 63.8433 29.3304Z" fill="white"/>
<path d="M75.8741 29.3304C75.8741 32.2718 74.3486 34.1616 72.0464 34.1616C71.4633 34.1931 70.8833 34.0545 70.3729 33.7616C69.8625 33.4687 69.4424 33.0334 69.1606 32.5056H69.117V37.1939H67.2344V24.5971H69.0567V26.1715H69.0913C69.3861 25.6461 69.8133 25.2131 70.3276 24.9185C70.8418 24.6238 71.4239 24.4785 72.0118 24.4981C74.3397 24.4981 75.8741 26.3971 75.8741 29.3304ZM73.939 29.3304C73.939 27.414 72.9793 26.1541 71.5152 26.1541C70.0767 26.1541 69.1091 27.4405 69.1091 29.3304C69.1091 31.2375 70.0767 32.5148 71.5152 32.5148C72.9794 32.5148 73.939 31.2641 73.939 29.3304H73.939Z" fill="white"/>
<path d="M82.5444 30.4452C82.6839 31.7326 83.8958 32.578 85.5519 32.578C87.1388 32.578 88.2804 31.7326 88.2804 30.5717C88.2804 29.564 87.5919 28.9607 85.9615 28.5471L84.3311 28.1418C82.0211 27.566 80.9486 26.4511 80.9486 24.6419C80.9486 22.4019 82.8402 20.8633 85.5262 20.8633C88.1845 20.8633 90.0068 22.4019 90.0681 24.6419H88.1676C88.0539 23.3463 87.0161 22.5642 85.4995 22.5642C83.9828 22.5642 82.9451 23.3555 82.9451 24.5071C82.9451 25.425 83.6079 25.9651 85.2294 26.3786L86.6154 26.7298C89.1965 27.3597 90.2689 28.4297 90.2689 30.3287C90.2689 32.7576 88.3942 34.2789 85.4124 34.2789C82.6225 34.2789 80.7389 32.7933 80.6172 30.4451L82.5444 30.4452Z" fill="white"/>
<path d="M94.3326 22.3569V24.597H96.0767V26.1356H94.3326V31.3538C94.3326 32.1644 94.6818 32.5422 95.4485 32.5422C95.6556 32.5385 95.8623 32.5234 96.0678 32.4972V34.0266C95.7231 34.0931 95.3727 34.1232 95.0221 34.1165C93.1652 34.1165 92.441 33.3967 92.441 31.561V26.1356H91.1074V24.597H92.441V22.3569H94.3326Z" fill="white"/>
<path d="M97.0879 29.3301C97.0879 26.3519 98.7875 24.4805 101.438 24.4805C104.097 24.4805 105.789 26.3519 105.789 29.3301C105.789 32.3165 104.106 34.1797 101.438 34.1797C98.7707 34.1797 97.0879 32.3164 97.0879 29.3301ZM103.871 29.3301C103.871 27.2871 102.963 26.0814 101.438 26.0814C99.9124 26.0814 99.0062 27.2963 99.0062 29.3301C99.0062 31.3812 99.9124 32.5778 101.438 32.5778C102.963 32.5778 103.871 31.3812 103.871 29.3301H103.871Z" fill="white"/>
<path d="M107.34 24.597H109.135V26.2081H109.179C109.301 25.7049 109.586 25.2603 109.988 24.9488C110.39 24.6374 110.883 24.4782 111.385 24.498C111.602 24.4972 111.819 24.5215 112.03 24.5705V26.3878C111.756 26.3014 111.471 26.2618 111.184 26.2704C110.911 26.259 110.638 26.3087 110.385 26.4163C110.132 26.5239 109.904 26.6867 109.718 26.8936C109.532 27.1004 109.391 27.3465 109.305 27.6149C109.22 27.8832 109.192 28.1675 109.223 28.4481V34.0625H107.34L107.34 24.597Z" fill="white"/>
<path d="M120.711 31.2822C120.458 33.0005 118.836 34.1797 116.762 34.1797C114.094 34.1797 112.438 32.3348 112.438 29.375C112.438 26.406 114.103 24.4805 116.683 24.4805C119.22 24.4805 120.816 26.2794 120.816 29.1494V29.8151H114.338V29.9325C114.308 30.2808 114.35 30.6318 114.462 30.962C114.574 31.2922 114.752 31.5941 114.985 31.8477C115.219 32.1012 115.502 32.3007 115.815 32.4327C116.129 32.5648 116.467 32.6264 116.805 32.6135C117.25 32.6566 117.697 32.5502 118.078 32.3104C118.46 32.0705 118.756 31.7099 118.923 31.2822L120.711 31.2822ZM114.347 28.4572H118.932C118.949 28.1439 118.903 27.8305 118.797 27.5365C118.691 27.2425 118.527 26.9743 118.316 26.7487C118.105 26.5231 117.851 26.3451 117.57 26.2256C117.289 26.1062 116.987 26.0481 116.683 26.0548C116.376 26.0529 116.072 26.1137 115.788 26.2337C115.505 26.3536 115.247 26.5304 115.03 26.7537C114.813 26.9771 114.64 27.2426 114.523 27.535C114.406 27.8273 114.346 28.1408 114.347 28.4572V28.4572Z" fill="white"/>
<path d="M48.2186 11.3074C48.6133 11.2781 49.0093 11.3397 49.3782 11.4875C49.7471 11.6354 50.0795 11.8659 50.3516 12.1624C50.6237 12.459 50.8287 12.8141 50.9516 13.2023C51.0746 13.5904 51.1126 14.0019 51.0628 14.407C51.0628 16.4 50.0191 17.5456 48.2186 17.5456H46.0352V11.3074H48.2186ZM46.974 16.6634H48.1137C48.3957 16.6808 48.678 16.633 48.9399 16.5237C49.2018 16.4143 49.4368 16.246 49.6278 16.0311C49.8187 15.8162 49.9608 15.56 50.0438 15.2813C50.1267 15.0026 50.1483 14.7082 50.1072 14.4198C50.1454 14.1324 50.1215 13.8399 50.0373 13.5632C49.9531 13.2865 49.8106 13.0325 49.6201 12.8193C49.4296 12.6061 49.1957 12.439 48.9353 12.33C48.6749 12.221 48.3943 12.1729 48.1137 12.1889H46.974V16.6634Z" fill="white"/>
<path d="M52.1235 15.1897C52.0948 14.8803 52.1291 14.5682 52.2241 14.2733C52.3192 13.9784 52.4729 13.7072 52.6755 13.4773C52.878 13.2473 53.1249 13.0635 53.4003 12.9378C53.6757 12.812 53.9736 12.7471 54.2747 12.7471C54.5759 12.7471 54.8737 12.812 55.1491 12.9378C55.4245 13.0635 55.6714 13.2473 55.8739 13.4773C56.0765 13.7072 56.2302 13.9784 56.3253 14.2733C56.4204 14.5682 56.4547 14.8803 56.426 15.1897C56.4552 15.4994 56.4213 15.812 56.3265 16.1073C56.2317 16.4027 56.078 16.6744 55.8754 16.9048C55.6728 17.1352 55.4258 17.3194 55.1501 17.4454C54.8744 17.5714 54.5762 17.6365 54.2747 17.6365C53.9732 17.6365 53.675 17.5714 53.3994 17.4454C53.1237 17.3194 52.8766 17.1352 52.674 16.9048C52.4714 16.6744 52.3177 16.4027 52.2229 16.1073C52.1281 15.812 52.0942 15.4994 52.1235 15.1897V15.1897ZM55.5 15.1897C55.5 14.1692 55.0558 13.5725 54.2762 13.5725C53.4937 13.5725 53.0534 14.1692 53.0534 15.1897C53.0534 16.2183 53.4937 16.8105 54.2762 16.8105C55.0558 16.8105 55.5 16.2143 55.5 15.1897H55.5Z" fill="white"/>
<path d="M62.1454 17.5456H61.2115L60.2687 14.0784H60.1975L59.2586 17.5456H58.3336L57.0762 12.8379H57.9893L58.8065 16.4302H58.8738L59.8116 12.8379H60.6753L61.6132 16.4302H61.6844L62.4976 12.8379H63.3979L62.1454 17.5456Z" fill="white"/>
<path d="M64.4551 12.8377H65.3217V13.5856H65.389C65.5031 13.317 65.6956 13.0918 65.9396 12.9414C66.1836 12.7911 66.467 12.7231 66.7503 12.7468C66.9722 12.7296 67.1951 12.7641 67.4024 12.8479C67.6097 12.9316 67.796 13.0624 67.9477 13.2306C68.0993 13.3987 68.2123 13.5999 68.2784 13.8193C68.3444 14.0387 68.3618 14.2706 68.3292 14.4978V17.5454H67.429V14.7311C67.429 13.9746 67.1104 13.5983 66.4446 13.5983C66.2939 13.5911 66.1435 13.6175 66.0036 13.6759C65.8637 13.7343 65.7378 13.8232 65.6343 13.9365C65.5308 14.0498 65.4523 14.1849 65.4042 14.3324C65.3561 14.48 65.3394 14.6365 65.3553 14.7913V17.5454H64.4551L64.4551 12.8377Z" fill="white"/>
<path d="M69.7637 11H70.6639V17.5455H69.7637V11Z" fill="white"/>
<path d="M71.9144 15.1898C71.8858 14.8804 71.9201 14.5682 72.0152 14.2733C72.1103 13.9784 72.264 13.7073 72.4666 13.4773C72.6692 13.2473 72.9161 13.0635 73.1915 12.9378C73.4669 12.812 73.7648 12.7471 74.066 12.7471C74.3671 12.7471 74.665 12.812 74.9404 12.9378C75.2158 13.0635 75.4627 13.2473 75.6653 13.4773C75.8679 13.7073 76.0216 13.9784 76.1167 14.2733C76.2118 14.5682 76.2461 14.8804 76.2175 15.1898C76.2467 15.4995 76.2127 15.8121 76.1179 16.1075C76.0231 16.4028 75.8694 16.6745 75.6668 16.9049C75.4641 17.1353 75.217 17.3195 74.9413 17.4455C74.6657 17.5715 74.3675 17.6366 74.066 17.6366C73.7644 17.6366 73.4663 17.5715 73.1906 17.4455C72.9149 17.3195 72.6678 17.1353 72.4652 16.9049C72.2625 16.6745 72.1089 16.4028 72.014 16.1075C71.9192 15.8121 71.8853 15.4995 71.9144 15.1898V15.1898ZM75.291 15.1898C75.291 14.1693 74.8468 13.5726 74.0672 13.5726C73.2846 13.5726 72.8444 14.1693 72.8444 15.1898C72.8444 16.2184 73.2847 16.8106 74.0672 16.8106C74.8468 16.8106 75.291 16.2143 75.291 15.1898H75.291Z" fill="white"/>
<path d="M77.166 16.2143C77.166 15.3669 77.7774 14.8784 78.8627 14.8089L80.0983 14.7354V14.3291C80.0983 13.8318 79.7798 13.5511 79.1644 13.5511C78.6619 13.5511 78.3136 13.7415 78.2137 14.0743H77.3421C77.4341 13.2657 78.1712 12.7471 79.206 12.7471C80.3496 12.7471 80.9947 13.3346 80.9947 14.3291V17.5456H80.128V16.8841H80.0568C79.9122 17.1214 79.7092 17.3148 79.4685 17.4447C79.2277 17.5746 78.9579 17.6362 78.6866 17.6232C78.4951 17.6438 78.3015 17.6227 78.1184 17.5613C77.9353 17.4999 77.7667 17.3997 77.6234 17.2669C77.4801 17.1342 77.3654 16.9719 77.2866 16.7906C77.2079 16.6093 77.1668 16.413 77.166 16.2143V16.2143ZM80.0983 15.812V15.4184L78.9844 15.492C78.3562 15.5353 78.0712 15.7559 78.0712 16.1709C78.0712 16.5946 78.4274 16.8412 78.9171 16.8412C79.0606 16.8562 79.2056 16.8412 79.3434 16.7972C79.4811 16.7532 79.6089 16.681 79.7191 16.585C79.8293 16.489 79.9197 16.3711 79.9849 16.2383C80.05 16.1055 80.0886 15.9605 80.0983 15.812V15.812Z" fill="white"/>
<path d="M82.1777 15.1896C82.1777 13.702 82.9187 12.7597 84.0713 12.7597C84.3564 12.7461 84.6393 12.8166 84.887 12.9628C85.1347 13.1091 85.337 13.3251 85.4702 13.5856H85.5375V11H86.4377V17.5455H85.575V16.8017H85.5038C85.3604 17.0604 85.151 17.2737 84.8985 17.4185C84.646 17.5633 84.36 17.634 84.0713 17.6231C82.9108 17.6231 82.1777 16.6807 82.1777 15.1896ZM83.1077 15.1896C83.1077 16.1881 83.5638 16.7889 84.3266 16.7889C85.0853 16.7889 85.5543 16.1794 85.5543 15.1937C85.5543 14.2125 85.0804 13.5943 84.3266 13.5943C83.5687 13.5943 83.1077 14.1992 83.1077 15.1896H83.1077Z" fill="white"/>
<path d="M90.1625 15.1897C90.1338 14.8803 90.1681 14.5682 90.2632 14.2733C90.3583 13.9784 90.512 13.7072 90.7146 13.4773C90.9171 13.2473 91.164 13.0635 91.4394 12.9378C91.7148 12.812 92.0126 12.7471 92.3138 12.7471C92.6149 12.7471 92.9128 12.812 93.1882 12.9378C93.4636 13.0635 93.7104 13.2473 93.913 13.4773C94.1156 13.7072 94.2693 13.9784 94.3644 14.2733C94.4594 14.5682 94.4937 14.8803 94.465 15.1897C94.4943 15.4994 94.4604 15.812 94.3656 16.1073C94.2708 16.4027 94.1171 16.6744 93.9145 16.9048C93.7119 17.1352 93.4648 17.3194 93.1891 17.4454C92.9135 17.5714 92.6153 17.6365 92.3138 17.6365C92.0123 17.6365 91.7141 17.5714 91.4384 17.4454C91.1627 17.3194 90.9157 17.1352 90.7131 16.9048C90.5105 16.6744 90.3568 16.4027 90.262 16.1073C90.1672 15.812 90.1333 15.4994 90.1625 15.1897V15.1897ZM93.539 15.1897C93.539 14.1692 93.0948 13.5725 92.3153 13.5725C91.5327 13.5725 91.0925 14.1692 91.0925 15.1897C91.0925 16.2183 91.5328 16.8105 92.3153 16.8105C93.0948 16.8105 93.539 16.2143 93.539 15.1897Z" fill="white"/>
<path d="M95.6738 12.8377H96.5405V13.5856H96.6077C96.7219 13.317 96.9144 13.0918 97.1584 12.9414C97.4024 12.7911 97.6858 12.7231 97.969 12.7468C98.191 12.7296 98.4139 12.7641 98.6211 12.8479C98.8284 12.9316 99.0148 13.0624 99.1664 13.2306C99.318 13.3987 99.4311 13.5999 99.4971 13.8193C99.5632 14.0387 99.5806 14.2706 99.548 14.4978V17.5454H98.6477V14.7311C98.6477 13.9746 98.3292 13.5983 97.6633 13.5983C97.5126 13.5911 97.3622 13.6175 97.2223 13.6759C97.0825 13.7343 96.9565 13.8232 96.8531 13.9365C96.7496 14.0498 96.6711 14.1849 96.623 14.3324C96.5748 14.48 96.5581 14.6365 96.5741 14.7913V17.5454H95.6738V12.8377Z" fill="white"/>
<path d="M104.635 11.6655V12.859H105.624V13.6416H104.635V16.0624C104.635 16.5555 104.832 16.7714 105.28 16.7714C105.395 16.771 105.51 16.7639 105.624 16.75V17.5239C105.462 17.5537 105.298 17.5696 105.134 17.5713C104.133 17.5713 103.734 17.2079 103.734 16.3002V13.6416H103.01V12.859H103.734V11.6655H104.635Z" fill="white"/>
<path d="M106.854 11H107.746V13.5943H107.817C107.937 13.3232 108.135 13.0967 108.383 12.9458C108.632 12.7949 108.92 12.7269 109.208 12.751C109.429 12.7386 109.65 12.7766 109.854 12.8624C110.059 12.9482 110.243 13.0796 110.394 13.2472C110.544 13.4148 110.656 13.6146 110.723 13.8322C110.789 14.0498 110.809 14.2799 110.779 14.506V17.5455H109.878V14.7352C109.878 13.9833 109.539 13.6025 108.902 13.6025C108.748 13.5894 108.592 13.6113 108.446 13.6668C108.301 13.7222 108.169 13.8099 108.059 13.9236C107.95 14.0373 107.866 14.1742 107.813 14.3249C107.76 14.4756 107.74 14.6364 107.754 14.796V17.5455H106.854L106.854 11Z" fill="white"/>
<path d="M116.027 16.2744C115.905 16.7046 115.64 17.0768 115.278 17.3258C114.917 17.5748 114.482 17.6847 114.051 17.6363C113.75 17.6445 113.451 17.5851 113.175 17.4623C112.899 17.3394 112.652 17.156 112.452 16.9248C112.251 16.6936 112.102 16.4201 112.014 16.1234C111.926 15.8267 111.902 15.5138 111.943 15.2064C111.903 14.8981 111.928 14.5846 112.016 14.2869C112.103 13.9893 112.252 13.7146 112.451 13.4814C112.651 13.2482 112.896 13.0619 113.171 12.9352C113.447 12.8085 113.745 12.7443 114.047 12.7469C115.316 12.7469 116.082 13.6418 116.082 15.1201V15.4443H112.86V15.4964C112.846 15.6692 112.867 15.8431 112.922 16.0069C112.977 16.1708 113.064 16.3211 113.179 16.448C113.293 16.575 113.432 16.6759 113.586 16.7443C113.741 16.8127 113.907 16.847 114.075 16.8451C114.291 16.8717 114.509 16.8317 114.702 16.7301C114.895 16.6285 115.055 16.4698 115.161 16.2743L116.027 16.2744ZM112.86 14.7572H115.164C115.176 14.5992 115.155 14.4405 115.103 14.2913C115.052 14.1421 114.97 14.0057 114.865 13.8908C114.759 13.776 114.631 13.6852 114.489 13.6244C114.348 13.5636 114.195 13.534 114.042 13.5377C113.886 13.5356 113.731 13.5658 113.587 13.6264C113.443 13.687 113.312 13.7767 113.202 13.8904C113.092 14.004 113.005 14.1393 112.946 14.2882C112.888 14.437 112.858 14.5965 112.86 14.7572H112.86Z" fill="white"/>
</svg>
