<svg width="183" height="78" viewBox="0 0 183 78" fill="none" xmlns="http://www.w3.org/2000/svg">
<path fill-rule="evenodd" clip-rule="evenodd" d="M169.705 38.0343V24.3778C169.705 22.2745 168.77 21.0535 166.747 20.512C166.585 20.484 166.426 20.4399 166.272 20.3803C166.098 20.2781 165.932 20.1621 165.777 20.0333C165.933 19.8973 166.109 19.7872 166.299 19.7071C168.737 19.1447 171.179 18.6011 173.619 18.0534C176.522 17.4011 179.424 16.7522 182.326 16.1069C182.526 16.0775 182.728 16.0628 182.929 16.063C182.954 16.1174 182.977 16.1717 183 16.2261C182.793 16.4101 182.585 16.5919 182.378 16.7801C181.609 17.4805 180.765 18.114 180.098 18.9001C179.306 19.8305 178.993 20.9908 178.995 22.2452C179.007 33.142 179.007 44.0388 178.995 54.9356C178.995 56.3426 178.767 56.5015 177.504 55.8868C172.89 53.6393 170.387 49.8865 169.792 44.7914C169.742 44.5574 169.722 44.3178 169.732 44.0785C169.886 43.052 169.351 42.4519 168.613 41.8373C164.881 38.7242 161.189 35.5651 157.482 32.4144C157.345 32.2995 157.2 32.1949 156.981 32.0235C156.968 32.2953 156.954 32.4855 156.954 32.6758C156.954 37.6531 156.954 42.6317 156.954 47.6118C156.954 49.644 157.878 51.0803 159.649 52.0023C159.922 52.1486 160.215 52.2616 160.478 52.4204C160.652 52.5414 160.817 52.6755 160.971 52.8219C160.463 53.1229 144.179 53.1271 143.62 52.8072C143.865 52.6223 144.123 52.4539 144.391 52.3034C145.313 51.8727 146.174 51.3688 146.777 50.5074C147.35 49.7345 147.664 48.7967 147.67 47.8313C147.67 41.3041 147.67 34.7769 147.67 28.2497C147.67 26.6817 146.806 25.5569 145.299 25.1409C144.884 25.0301 144.469 24.9569 144.082 24.821C143.939 24.7708 143.839 24.5868 143.719 24.4656C143.85 24.3631 143.968 24.1917 144.111 24.1687C146.638 23.7777 149.167 23.3951 151.698 23.0397C151.925 23.0483 152.141 23.1397 152.306 23.2969C157.824 27.9661 163.338 32.6395 168.847 37.3172L169.705 38.0343Z" fill="white"/>
<path fill-rule="evenodd" clip-rule="evenodd" d="M95.8431 28.2852H105.983C106.11 28.2751 106.238 28.2786 106.364 28.2957C106.658 28.3584 106.681 28.5466 106.482 28.7138C106.31 28.8499 106.119 28.9591 105.914 29.0379C105.416 29.238 104.989 29.5861 104.691 30.0359C104.393 30.4858 104.238 31.0162 104.245 31.5572C104.191 33.4744 104.214 35.3915 104.245 37.3087C104.244 37.4904 104.279 37.6705 104.348 37.8384C104.416 38.0064 104.518 38.1589 104.645 38.287C104.773 38.415 104.925 38.5161 105.092 38.5844C105.259 38.6526 105.438 38.6866 105.618 38.6844C108.011 38.7067 110.407 38.7067 112.803 38.6844C112.984 38.6932 113.164 38.6649 113.334 38.6013C113.503 38.5378 113.658 38.4402 113.789 38.3145C113.92 38.1889 114.024 38.0378 114.096 37.8703C114.167 37.7028 114.204 37.5224 114.204 37.3401C114.238 35.3685 114.254 33.3928 114.18 31.4234C114.175 30.8907 114.006 30.3726 113.697 29.9408C113.387 29.509 112.953 29.1847 112.453 29.0128C112.4 28.9964 112.351 28.9701 112.308 28.9354C112.15 28.7786 111.999 28.6135 111.845 28.4525C112.03 28.3698 112.226 28.3122 112.426 28.281C115.643 28.2706 118.852 28.281 122.078 28.281C122.3 28.2794 122.519 28.3364 122.712 28.4462C122.58 28.5988 122.474 28.8267 122.308 28.8894C120.722 29.4957 120.291 30.7293 120.299 32.3182C120.33 37.9401 120.322 43.5641 120.299 49.1881C120.299 50.683 120.789 51.8036 122.238 52.3827C122.408 52.4517 122.515 52.6775 122.652 52.8281C122.475 52.918 122.285 52.9794 122.088 53.0099C118.853 53.0225 115.617 53.0225 112.38 53.0099C112.196 52.9829 112.016 52.9308 111.845 52.8552C111.976 52.7005 112.08 52.4685 112.245 52.4016C113.775 51.8015 114.254 50.5952 114.233 49.0564C114.213 47.5929 114.233 46.142 114.233 44.6868C114.233 43.4199 113.717 42.893 112.482 42.8909C110.288 42.8909 108.094 42.8909 105.9 42.8909C104.778 42.8909 104.241 43.4241 104.241 44.5384C104.241 46.1608 104.241 47.7832 104.241 49.4056C104.241 50.7645 104.774 51.7953 106.082 52.32C106.188 52.3512 106.286 52.4054 106.368 52.4789C106.458 52.6018 106.536 52.7335 106.6 52.872C106.48 52.9365 106.351 52.9817 106.217 53.0058C103.754 53.0058 101.469 53.7438 99.2222 54.6637C97.883 55.2136 96.5272 55.6798 94.8895 55.6756C95.1445 55.4268 95.3041 55.2575 95.4865 55.0923C96.7656 53.8776 97.7441 52.481 98.0426 50.7018C98.121 50.2103 98.1591 49.7131 98.1567 49.2153C98.1567 43.5181 98.1567 37.8209 98.1567 32.1238C98.1567 30.6456 97.6674 29.502 96.2121 28.9271C96.0235 28.8518 95.8866 28.6344 95.727 28.4818C95.7664 28.4169 95.8078 28.3521 95.8431 28.2852Z" fill="white"/>
<path fill-rule="evenodd" clip-rule="evenodd" d="M53.2017 35.5337C53.1872 35.8222 53.1686 35.9958 53.1686 36.1609C53.1686 40.5117 53.1686 44.8625 53.1686 49.2111C53.1686 50.6746 53.6495 51.8015 55.0862 52.3472C55.1915 52.3804 55.2874 52.4384 55.366 52.5166C55.4386 52.6065 55.5215 52.7486 55.4966 52.8385C55.4718 52.9284 55.308 52.9953 55.2043 52.9974C54.5285 53.0121 53.8527 52.9974 53.1768 52.9974C50.562 52.9974 47.9478 52.9974 45.3343 52.9974C45.127 52.9974 44.9197 52.9577 44.7124 52.9368C44.6896 52.8803 44.6647 52.826 44.6419 52.7695C44.8028 52.6054 44.9857 52.4647 45.1851 52.3514C46.5906 51.789 47.0944 50.6788 47.0944 49.2446C47.0944 43.5119 47.0944 37.7791 47.0944 32.0464C47.0944 30.6122 46.601 29.4937 45.1892 28.9417C45.0837 28.9114 44.9865 28.8571 44.9052 28.7828C44.8286 28.669 44.7647 28.547 44.7145 28.419C44.8264 28.3689 44.9363 28.2769 45.0462 28.2769C47.0384 28.2769 49.0307 28.2622 51.0229 28.2769C51.2283 28.3178 51.4101 28.4368 51.5308 28.6093C55.2624 33.4263 58.9939 38.2489 62.7255 43.077C62.8427 43.2554 63.0042 43.3996 63.194 43.4951V42.7571C63.194 39.182 63.194 35.6048 63.194 32.0297C63.194 30.5808 62.6923 29.4874 61.2909 28.9271C61.1364 28.8757 61.0007 28.7789 60.9012 28.649C60.8556 28.5779 60.9406 28.3772 61.0235 28.2894C61.1064 28.2016 61.2308 28.2664 61.3407 28.2664H71.1008C71.2625 28.2664 71.4242 28.2873 71.7828 28.3103C71.5569 28.5738 71.4532 28.8037 71.2894 28.8665C69.6807 29.4832 69.2557 30.7481 69.264 32.3454C69.291 37.5429 69.264 42.7425 69.2744 47.94C69.2744 49.9993 69.4693 52.0294 70.3109 53.9362C70.5556 54.486 70.8645 55.0045 71.1941 55.6317C70.9964 55.6291 70.799 55.6137 70.6033 55.5857C69.2373 55.2666 68.0161 54.497 67.1329 53.3988C66.1751 52.2636 65.2671 51.0823 64.357 49.9074C60.7637 45.2618 57.1703 40.6135 53.5769 35.9623C53.4816 35.8578 53.3779 35.7407 53.2017 35.5337Z" fill="white"/>
<path fill-rule="evenodd" clip-rule="evenodd" d="M90.5464 23.5456C92.2154 26.0849 93.467 28.8792 94.2531 31.8207L94.1018 31.9398C93.9317 31.8997 93.7652 31.8451 93.6042 31.7767C93.0694 31.5008 92.5449 31.2039 92.01 30.9237C90.8687 30.3414 89.9407 29.4078 89.3606 28.2581C87.5508 24.7896 84.1406 24.1227 81.4062 24.8335C80.9322 24.9485 80.4932 25.1785 80.1274 25.5035C79.7616 25.8285 79.48 26.2386 79.3072 26.6983C79.1343 27.1581 79.0754 27.6534 79.1356 28.1413C79.1957 28.6292 79.3731 29.0949 79.6523 29.4979C80.1305 30.1694 80.7212 30.7517 81.3979 31.2185C84.0058 33.0834 86.6635 34.8773 89.2881 36.7213C90.0855 37.2717 90.8471 37.8729 91.5685 38.5214C94.5081 41.2184 95.2026 44.6283 94.4894 48.4146C93.7452 52.3681 90.9652 54.8498 86.8646 55.3725C84.2173 55.7091 81.6176 55.5565 79.0677 54.7202C77.6456 54.2561 76.2379 54.2038 74.849 54.9293C74.1624 54.2094 73.6718 53.3229 73.4248 52.3556C72.7141 49.8482 72.541 47.2169 72.9168 44.6367C72.9334 44.5133 72.9708 44.3921 73.0392 44.0952C73.2817 44.5008 73.4538 44.7893 73.6217 45.0695C74.4675 46.4222 75.2138 47.8543 76.184 49.1087C78.2737 51.8099 81.0309 53.3487 84.4888 53.3257C87.7332 53.3048 89.3627 50.3987 88.635 47.7456C88.3489 46.7002 87.584 45.9936 86.7299 45.3935C84.1191 43.5663 81.5057 41.7418 78.8894 39.9201C78.3048 39.5019 77.7264 39.0838 77.1646 38.6468C74.2208 36.3366 72.9251 31.8959 74.2934 28.4839C75.558 25.329 78.0623 23.715 81.2859 23.117C83.388 22.7282 85.4321 23.163 87.4741 23.5979C88.4982 23.8174 89.5202 24.0704 90.5464 23.5456Z" fill="white"/>
<path fill-rule="evenodd" clip-rule="evenodd" d="M21.0709 54.0678C23.5918 52.1862 25.3601 49.9199 24.8543 46.4158L20.8885 48.6675C21.461 47.3715 22.19 46.1518 23.059 45.036C25.6462 41.6176 29.1165 39.4747 33.101 38.1659C34.6849 37.6453 36.362 37.4007 38.0101 37.1017C38.5325 37.0076 39.1006 37.1143 39.6396 37.1832C40.0293 37.2355 40.2387 37.4529 40.1309 37.9213C40.0586 38.2823 40.0369 38.6518 40.0666 39.0189C40.1143 39.8865 40.502 40.5117 41.3519 40.8211C42.0547 41.0761 42.7762 41.3291 43.1991 42.0253C43.2986 42.1905 43.3753 42.3703 43.5059 42.6295C43.1887 42.6505 42.9607 42.6735 42.7347 42.6776C39.2581 42.7362 35.8023 43.0101 32.3941 43.7502C31.0176 44.0512 31.0176 44.0491 31.0176 45.4813C31.0176 46.7357 31.0176 47.9901 31.0176 49.2446C31.0176 50.3004 31.5587 50.8356 32.6097 50.8377C34.0609 50.8377 35.4975 50.8126 36.9404 50.8377C39.2768 50.8899 41.0866 49.8927 42.403 48.0152C42.9793 47.1977 43.4105 46.2757 43.9454 45.3328C44.0071 45.5814 44.0494 45.8344 44.0718 46.0897C44.0926 48.3894 43.5577 50.5763 42.7927 52.7214C42.6642 53.081 42.4196 53.0099 42.1708 53.0099C39.1006 53.0099 36.0282 53.0455 32.9601 53.0099C29.2554 52.9576 25.584 53.1688 21.9727 54.0783C21.7056 54.1294 21.4355 54.1636 21.1642 54.1807L21.0709 54.0678Z" fill="white"/>
<path fill-rule="evenodd" clip-rule="evenodd" d="M126.498 52.7339C126.688 52.6197 126.886 52.5198 127.091 52.4349C127.539 52.2802 128.007 52.1799 128.451 52.0168C129.875 51.4774 130.497 50.5533 130.497 49.0375C130.497 43.4623 130.497 37.894 130.497 32.3328C130.497 30.7208 129.817 29.7654 128.287 29.2448C127.872 29.1026 127.445 29.0023 127.043 28.858C126.846 28.7708 126.657 28.6688 126.475 28.5528C126.89 28.2329 140.394 28.1764 141.061 28.4942C140.893 28.6278 140.711 28.7427 140.518 28.8371C140.072 28.9981 139.608 29.1068 139.162 29.2552C137.655 29.7884 137.002 30.7187 137.002 32.3223V49.0271C137.002 50.5052 137.583 51.4084 138.949 51.9645C139.471 52.1736 140.031 52.2949 140.564 52.4851C140.713 52.5395 140.823 52.6942 140.951 52.8154C140.814 52.9072 140.662 52.973 140.502 53.0099C136.003 53.0196 131.505 53.0196 127.008 53.0099C126.854 52.9962 126.702 52.9682 126.554 52.9262C126.525 52.8677 126.525 52.8008 126.498 52.7339Z" fill="white"/>
<path fill-rule="evenodd" clip-rule="evenodd" d="M72.952 19.0547C71.6874 19.293 70.5182 19.592 69.3303 19.7258C65.5365 20.144 61.7386 20.5182 58.0133 21.4109C55.8617 21.9185 53.775 22.6733 51.794 23.6605C51.6302 23.7421 51.4768 23.8424 51.3192 23.9344L51.3814 24.0766C51.9122 23.9281 52.4408 23.7776 53.0544 23.602C53.0295 24.5198 53.6556 24.7874 54.2983 25.0508C54.7772 25.2453 55.2457 25.469 55.7163 25.6781L55.6852 25.862C55.3307 25.862 54.9762 25.8767 54.6217 25.862C52.0365 25.7471 49.611 25.101 47.4529 23.6083C46.7667 23.1358 46.1738 22.5817 45.9562 21.7078C45.9005 21.5456 45.8987 21.3695 45.9511 21.2062C46.0034 21.0429 46.1071 20.9012 46.2464 20.8025C48.7942 18.5864 51.68 16.9661 54.8083 15.7535C58.4822 14.3602 62.2399 13.2031 66.0589 12.2892C67.0955 12.0299 67.8646 12.3498 68.4534 13.2718C68.8493 13.899 69.21 14.5262 69.5915 15.1534C70.1429 16.0629 70.8084 16.9473 71.7641 17.3549C72.5456 17.7041 72.67 18.279 72.952 19.0547Z" fill="white"/>
<path fill-rule="evenodd" clip-rule="evenodd" d="M111.91 25.6697L113.508 24.9819C114.018 24.7603 114.524 24.5428 114.59 23.8633C114.59 23.7985 114.907 23.694 115.053 23.7254C115.49 23.8215 115.915 23.9762 116.346 24.108L116.408 23.97C116.251 23.8801 116.097 23.7839 115.936 23.7003C113.139 22.2844 110.135 21.3301 107.038 20.8736C104.169 20.4262 101.279 20.1314 98.4035 19.7279C97.3235 19.5774 96.2579 19.3098 95.1861 19.1007C95.0387 19.0593 94.8946 19.0069 94.7549 18.9439C94.9767 18.277 95.1073 17.7125 95.8847 17.3759C96.8425 16.9577 97.5059 16.0817 98.0615 15.1744C98.445 14.5471 98.8036 13.9053 99.1975 13.2927C99.7738 12.3853 100.508 12.0383 101.538 12.3017C106.118 13.4286 110.66 14.7081 114.965 16.6608C117.3 17.7201 119.471 19.1152 121.409 20.8025C121.74 21.0911 121.861 21.4047 121.664 21.7622C121.386 22.266 121.129 22.8473 120.7 23.1901C118.202 25.1909 115.289 25.9185 112.144 25.8412C112.091 25.8341 112.04 25.8179 111.993 25.7931C111.978 25.7722 111.972 25.7492 111.91 25.6697Z" fill="white"/>
<path fill-rule="evenodd" clip-rule="evenodd" d="M94.3381 10.7253C94.0292 10.8571 93.7162 11.0055 93.4073 11.1226C91.9209 11.6766 90.4158 12.1867 88.9481 12.7826C88.2711 13.0472 87.6561 13.4509 87.1421 13.9682C86.6282 14.4854 86.2266 15.1048 85.9628 15.7869C85.3409 17.3529 84.8143 18.9606 84.2484 20.5496C84.2287 20.658 84.1953 20.7634 84.1489 20.8632C84.0597 20.9845 83.927 21.1663 83.8213 21.1601C83.7156 21.1538 83.5497 20.9803 83.5062 20.8486C83.2678 20.1147 83.1102 19.3516 82.8262 18.6387C82.3266 17.3842 81.7897 16.1298 81.203 14.9109C80.693 13.8781 79.7705 13.2258 78.7443 12.8035C77.26 12.193 75.7362 11.6829 74.2333 11.1205C73.9223 11.0034 73.6238 10.8487 73.3211 10.7128C73.3211 10.6438 73.3211 10.5769 73.3107 10.5037C73.6279 10.3574 73.9326 10.1901 74.2643 10.0709C75.5351 9.61308 76.8143 9.1824 78.0809 8.71826C78.977 8.41512 79.7928 7.90999 80.4664 7.24124C81.1399 6.57248 81.6534 5.75771 81.968 4.85881C82.4676 3.49776 82.9133 2.11789 83.3818 0.744292C83.3939 0.672511 83.414 0.602362 83.4419 0.535221C83.5663 0.353329 83.7052 0.17771 83.84 0C83.9911 0.169229 84.1188 0.358435 84.2193 0.562401C84.5365 1.51995 84.8413 2.48376 85.117 3.45594C85.9711 6.46447 87.8721 8.40047 90.8657 9.25139C91.7426 9.50228 92.6029 9.80543 93.4653 10.1044C93.7639 10.2068 94.0458 10.3657 94.3339 10.4975C94.336 10.5748 94.336 10.6501 94.3381 10.7253Z" fill="white"/>
<path fill-rule="evenodd" clip-rule="evenodd" d="M42.6746 35.5713C42.4154 35.0152 42.1895 34.4403 41.893 33.8988C41.0202 32.3224 39.8738 31.045 38.0661 30.5536C37.6438 30.4396 37.2095 30.3771 36.7725 30.3676C35.3835 30.3446 33.9945 30.3571 32.6035 30.3676C31.5669 30.3676 31.0238 30.9153 31.0196 31.9711C31.0196 33.7796 31.0196 35.586 31.0031 37.3923C30.9956 37.5086 30.9627 37.6217 30.9068 37.7236C30.8509 37.8256 30.7733 37.9138 30.6797 37.9819C28.5688 39.0325 26.63 40.4032 24.931 42.0463V41.3731C24.9227 38.276 24.9151 35.179 24.9082 32.0819C24.9082 29.9222 24.137 28.1702 22.2671 26.9952C22.1644 26.9212 22.068 26.8387 21.9789 26.7485C21.9789 26.7485 21.9789 26.7151 21.9685 26.6127C22.236 26.6398 22.4951 26.6461 22.7501 26.6942C24.7776 27.0768 26.7905 27.6099 28.8346 27.8169C31.6499 28.0991 34.4858 28.1535 37.3156 28.2685C38.5926 28.3187 39.8759 28.2852 41.155 28.2685C41.4722 28.2685 41.6442 28.3479 41.752 28.6741C42.3906 30.608 42.8446 32.5733 42.8674 34.6201C42.8576 34.9355 42.8313 35.2503 42.7886 35.563L42.6746 35.5713Z" fill="white"/>
<path fill-rule="evenodd" clip-rule="evenodd" d="M129.734 37.315V43.0769L121.964 42.5856C122.31 42.157 122.557 41.7493 122.895 41.4692C123.193 41.2257 123.538 41.0458 123.907 40.9402C125.151 40.5576 125.582 39.8175 125.478 38.3436C125.401 37.2648 125.478 37.0892 126.567 37.0892C127.613 37.085 128.662 37.2334 129.734 37.315Z" fill="white"/>
<path fill-rule="evenodd" clip-rule="evenodd" d="M144.611 48.632C142.498 47.3136 140.279 46.1771 137.977 45.2346C137.905 45.1954 137.843 45.1399 137.795 45.0724C137.748 45.0049 137.717 44.9273 137.705 44.8457C137.684 43.4867 137.693 42.1278 137.693 40.6643C140.854 42.6505 143.081 45.3224 144.611 48.632Z" fill="white"/>
<path d="M45.5996 62.2916H50.5899C50.7877 62.3515 50.9098 62.4563 50.9564 62.6061V62.666C50.1305 63.0952 49.7175 63.6094 49.7175 64.2083V72.3096C49.7175 72.9086 50.1305 73.4227 50.9564 73.852V73.9119C50.9215 74.0816 50.7993 74.1815 50.5899 74.2114H45.5996C45.367 74.1815 45.2448 74.0816 45.2332 73.9119V73.852C46.0707 73.4227 46.4895 72.9086 46.4895 72.3096V64.2083C46.4895 63.6094 46.0707 63.0952 45.2332 62.666V62.6061C45.2797 62.4563 45.4018 62.3515 45.5996 62.2916Z" fill="white"/>
<path d="M57.4569 62.3215H61.2956C61.6213 62.2916 61.854 62.3864 61.9935 62.6061C64.227 67.1484 65.3437 69.5044 65.3437 69.6741H65.4135C67.298 65.2815 68.3856 62.8706 68.6764 62.4413C68.8044 62.3515 68.9498 62.3116 69.1126 62.3215H71.8521C71.9103 62.3215 71.9859 62.3814 72.0789 62.5012V74.1815C71.0902 74.1914 70.3341 74.0517 69.8106 73.7622C69.2988 73.4727 69.0428 73.0683 69.0428 72.5492V65.9903H68.9556L65.6578 73.8071L65.1867 73.837C64.4771 73.837 63.9885 73.6474 63.721 73.268C62.6624 70.8221 61.5166 68.2565 60.2836 65.571H60.2138V72.5492C60.2138 73.288 59.8008 73.7921 58.9749 74.0617C58.6376 74.1615 58.4282 74.2014 58.3467 74.1815L58.2595 74.0617V64.5827C58.2595 63.6543 57.8233 63.0054 56.9508 62.636C57.009 62.4264 57.1777 62.3215 57.4569 62.3215ZM58.3293 74.1815C58.2828 74.1815 58.2595 74.1615 58.2595 74.1216C58.2595 74.0816 58.2595 74.0417 58.2595 74.0018C58.3526 74.0417 58.3991 74.0816 58.3991 74.1216C58.3991 74.1715 58.3758 74.1914 58.3293 74.1815Z" fill="white"/>
<path d="M85.316 65.7208H85.665C87.5378 65.7208 88.7767 66.6742 89.3816 68.5809C89.4863 69.0701 89.5386 69.4794 89.5386 69.8089V70.0934C89.5386 72.0201 88.7418 73.3379 87.1481 74.0467C86.4967 74.2064 86.0023 74.2863 85.665 74.2863H85.2637C84.3796 74.2863 83.6758 74.0517 83.1524 73.5825V75.7388C83.1524 76.797 82.5242 77.5158 81.2679 77.8952C81.0818 77.9651 80.8259 78 80.5002 78H80.4478C80.3547 78 80.3082 77.9651 80.3082 77.8952V68.2964C80.3082 67.5876 79.9243 67.0585 79.1566 66.7091V66.6043C79.2148 66.4945 79.3195 66.4246 79.4707 66.3946C81.4249 66.0352 82.5591 65.8306 82.8732 65.7807C82.9779 65.8206 83.0244 65.8755 83.0128 65.9454C83.0128 66.2848 83.0128 66.4895 83.0128 66.5594C83.6991 66.0003 84.4668 65.7208 85.316 65.7208ZM83.1524 67.6974V72.3096C83.5944 72.7689 84.1353 72.9985 84.7751 72.9985C85.7755 72.9985 86.3629 72.2198 86.5374 70.6624V69.6741C86.5374 68.3264 86.1303 67.4778 85.316 67.1284L84.9147 67.0685H84.5134C84.0015 67.0685 83.5479 67.2781 83.1524 67.6974Z" fill="white"/>
<path d="M100.139 66.9787C99.732 66.9787 99.3714 67.1633 99.0573 67.5327C98.7433 67.8921 98.5862 68.5061 98.5862 69.3746H102.059C102.093 68.6159 101.925 68.0269 101.553 67.6076C101.18 67.1783 100.709 66.9687 100.139 66.9787ZM100.157 65.8556C102.425 65.8556 103.937 66.759 104.693 68.566C104.914 69.155 104.984 69.7789 104.903 70.4378C104.914 70.6574 104.81 70.7672 104.589 70.7672L98.6386 70.7972C98.5571 70.7772 98.5281 70.8172 98.5513 70.917C98.563 71.9952 99.1969 72.6441 100.453 72.8637C101.71 73.0833 102.89 72.8537 103.995 72.1749C104.03 72.1449 104.071 72.1399 104.117 72.1599C104.257 72.2497 104.414 72.3845 104.589 72.5642C104.658 72.6241 104.67 72.679 104.623 72.7289C103.414 73.8969 101.931 74.441 100.174 74.3612C97.9988 74.2913 96.5214 73.3678 95.7421 71.5908C95.6374 71.1815 95.585 70.8122 95.585 70.4827V69.8987C95.9573 67.2332 97.4811 65.8855 100.157 65.8556Z" fill="white"/>
<path d="M114.462 61.9621C114.555 61.9821 114.596 62.037 114.584 62.1269V69.6441L116.975 67.383C117.149 66.9038 116.87 66.5594 116.137 66.3497V66.2898C116.172 66.17 116.259 66.0952 116.399 66.0652H120.709C120.848 66.0852 120.936 66.16 120.971 66.2898V66.3497C120.633 66.4196 120.29 66.5893 119.941 66.8589L117.446 69.1051V69.1799C119.214 71.7356 120.284 73.1382 120.656 73.3878C120.959 73.6174 121.32 73.7921 121.738 73.9119V74.0317C121.738 74.0816 121.674 74.1365 121.546 74.1964H120.133C118.563 74.1964 117.434 73.5775 116.748 72.3396C116.143 71.4611 115.771 70.907 115.631 70.6774C115.573 70.6774 115.224 70.9869 114.584 71.6058V71.8903C114.584 73.1782 113.729 73.9269 112.019 74.1365C111.891 74.1565 111.827 74.1016 111.827 73.9718V64.2083C111.827 63.6593 111.461 63.215 110.728 62.8756C110.716 62.6959 110.833 62.5811 111.077 62.5312L114.462 61.9621Z" fill="white"/>
<path d="M137.54 62.3515C137.691 62.3715 137.784 62.4563 137.819 62.6061V62.8007L131.886 72.3845V72.4294H136.545C137.185 72.4294 137.644 72.2348 137.924 71.8454C138.098 71.8853 138.191 71.9702 138.203 72.1C137.97 73.0484 137.79 73.6773 137.662 73.9868C137.592 74.0667 137.487 74.1066 137.348 74.1066H127.28C127.071 74.0367 127.012 73.9019 127.105 73.7023L133.335 63.819H129.723C128.804 63.839 128.176 64.0486 127.838 64.4479H127.768C127.594 64.428 127.518 64.3381 127.542 64.1784C127.693 63.3797 127.815 62.8107 127.908 62.4713C127.955 62.3914 128.024 62.3515 128.117 62.3515H137.54Z" fill="white"/>
<path d="M5.85336 18.1108H18.0922C18.4075 18.1108 18.6834 18.3237 18.9199 18.7495V50.426C18.9199 55.6486 15.6681 59.3953 9.16435 61.666C6.56285 62.3756 3.78399 62.7304 0.827747 62.7304C0.394165 62.6736 0.11825 62.4749 0 62.1343C5.75482 60.1191 8.63222 56.3014 8.63222 50.6814V25.0081C8.63222 22.5104 7.07527 20.5519 3.96136 19.1327V18.9624C4.23728 18.3947 4.86794 18.1108 5.85336 18.1108Z" fill="white"/>
</svg>
