<svg width="140" height="48" viewBox="0 0 140 48" fill="none" xmlns="http://www.w3.org/2000/svg">
<path d="M134.815 0H5.18518C2.32149 0 0 2.68629 0 6V42C0 45.3137 2.32149 48 5.18518 48H134.815C137.679 48 140 45.3137 140 42V6C140 2.68629 137.679 0 134.815 0Z" fill="#102133"/>
<path d="M49.4183 13.3781C49.4365 13.745 49.3798 14.1119 49.2516 14.4562C49.1235 14.8005 48.9267 15.1152 48.6731 15.381C48.3889 15.6758 48.0456 15.9072 47.6658 16.0602C47.286 16.2131 46.8782 16.2842 46.469 16.2687C46.0572 16.2724 45.6488 16.1937 45.2679 16.0373C44.8869 15.8809 44.5411 15.65 44.2507 15.358C43.9603 15.0661 43.7312 14.719 43.5768 14.3372C43.4225 13.9554 43.346 13.5467 43.3519 13.1349C43.346 12.7231 43.4225 12.3144 43.5769 11.9326C43.7313 11.5508 43.9604 11.2037 44.2508 10.9117C44.5412 10.6197 44.887 10.3887 45.2679 10.2323C45.6488 10.0758 46.0572 9.99703 46.469 10.0006C46.8924 9.99933 47.3115 10.0849 47.7005 10.2521C48.0617 10.3985 48.3833 10.6282 48.639 10.9225L48.1116 11.4503C47.9106 11.2138 47.658 11.0265 47.3732 10.9031C47.0884 10.7797 46.779 10.7233 46.469 10.7384C46.1569 10.7368 45.8477 10.7982 45.5599 10.9189C45.2721 11.0396 45.0116 11.2172 44.7941 11.4409C44.5765 11.6647 44.4064 11.93 44.2938 12.2211C44.1812 12.5122 44.1286 12.823 44.139 13.1349C44.1315 13.6021 44.263 14.061 44.5167 14.4534C44.7704 14.8458 45.1349 15.154 45.564 15.3389C45.9931 15.5239 46.4674 15.5772 46.9269 15.4922C47.3864 15.4072 47.8102 15.1877 48.1448 14.8615C48.4527 14.5297 48.6311 14.0984 48.6477 13.6461H46.469V12.9254H49.3763C49.4038 13.0747 49.4178 13.2263 49.4183 13.3781V13.3781Z" fill="white" stroke="white" stroke-width="0.2" stroke-miterlimit="10"/>
<path d="M54.0263 10.8721H51.2939V12.7744H53.7578V13.4952H51.2939V15.3975H54.0263V16.1348H50.5234V10.1348H54.0263V10.8721Z" fill="white" stroke="white" stroke-width="0.2" stroke-miterlimit="10"/>
<path d="M57.2793 16.1348H56.5078V10.8721H54.832V10.1348H58.9551V10.8721H57.2793V16.1348Z" fill="white" stroke="white" stroke-width="0.2" stroke-miterlimit="10"/>
<path d="M61.9375 16.1348V10.1348H62.708V16.1348H61.9375Z" fill="white" stroke="white" stroke-width="0.2" stroke-miterlimit="10"/>
<path d="M66.1269 16.1348H65.3554V10.8721H63.6797V10.1348H67.8027V10.8721H66.1269V16.1348Z" fill="white" stroke="white" stroke-width="0.2" stroke-miterlimit="10"/>
<path d="M75.6082 15.3589C75.0242 15.9411 74.2332 16.2681 73.4085 16.2681C72.5838 16.2681 71.7928 15.9411 71.2088 15.3589C70.9199 15.0663 70.6928 14.7185 70.5409 14.3364C70.3891 13.9542 70.3157 13.5454 70.325 13.1343C70.3157 12.7232 70.3891 12.3144 70.5409 11.9322C70.6928 11.5501 70.9199 11.2023 71.2088 10.9097C71.4975 10.621 71.8402 10.392 72.2175 10.2359C72.5947 10.0798 72.9991 9.99964 73.4074 10C73.8156 10.0004 74.2198 10.0812 74.5968 10.238C74.9738 10.3948 75.3162 10.6244 75.6043 10.9136C75.8934 11.2055 76.121 11.5524 76.2735 11.9339C76.426 12.3154 76.5003 12.7236 76.492 13.1343C76.5011 13.5454 76.4275 13.9541 76.2757 14.3362C76.1239 14.7184 75.8969 15.0661 75.6082 15.3589V15.3589ZM71.7781 14.8565C72.2106 15.2883 72.7968 15.5308 73.408 15.5308C74.0192 15.5308 74.6054 15.2883 75.0379 14.8565C75.2597 14.6294 75.4332 14.3597 75.5478 14.0637C75.6625 13.7677 75.7159 13.4515 75.7049 13.1343C75.7159 12.8171 75.6625 12.5009 75.5478 12.2049C75.4332 11.9089 75.2597 11.6392 75.0379 11.4121C74.6054 10.9803 74.0192 10.7378 73.408 10.7378C72.7968 10.7378 72.2106 10.9803 71.7781 11.4121C71.5566 11.6394 71.3834 11.9091 71.269 12.2051C71.1545 12.5011 71.1011 12.8171 71.1121 13.1343C71.1011 13.4515 71.1545 13.7675 71.269 14.0635C71.3834 14.3595 71.5566 14.6292 71.7781 14.8565V14.8565Z" fill="white" stroke="white" stroke-width="0.2" stroke-miterlimit="10"/>
<path d="M77.5742 16.1348V10.1348H78.5127L81.4287 14.8023H81.4619L81.4287 13.646V10.1348H82.2002V16.1348H81.3955L78.3447 11.2412H78.3115L78.3447 12.3975V16.1348H77.5742Z" fill="white" stroke="white" stroke-width="0.2" stroke-miterlimit="10"/>
<path d="M70.1373 24.8867C69.2968 24.8899 68.4761 25.1421 67.7788 25.6113C67.0815 26.0806 66.5389 26.746 66.2194 27.5234C65.9 28.3009 65.818 29.1555 65.984 29.9795C66.1499 30.8035 66.5563 31.5598 67.1517 32.153C67.7472 32.7462 68.5051 33.1497 69.3297 33.3125C70.1543 33.4753 71.0086 33.3901 71.7848 33.0677C72.5611 32.7453 73.2244 32.2002 73.691 31.5011C74.1576 30.802 74.4066 29.9803 74.4066 29.1398C74.4149 28.5776 74.31 28.0195 74.0982 27.4987C73.8863 26.9779 73.5719 26.505 73.1736 26.1082C72.7753 25.7114 72.3012 25.3988 71.7796 25.189C71.258 24.9791 70.6995 24.8763 70.1373 24.8867ZM70.1373 31.7175C69.6197 31.7544 69.103 31.6346 68.6544 31.3737C68.2058 31.1129 67.8461 30.723 67.6222 30.2548C67.3983 29.7866 67.3206 29.2619 67.3991 28.749C67.4776 28.236 67.7087 27.7585 68.0624 27.3788C68.416 26.999 68.8758 26.7345 69.3819 26.6197C69.888 26.5049 70.4169 26.5451 70.8998 26.7352C71.3827 26.9252 71.7972 27.2562 72.0893 27.6851C72.3815 28.114 72.5377 28.6209 72.5377 29.1398C72.5534 29.4677 72.5034 29.7953 72.3906 30.1035C72.2777 30.4117 72.1044 30.6943 71.8807 30.9345C71.657 31.1747 71.3875 31.3677 71.0881 31.5022C70.7887 31.6366 70.4655 31.7099 70.1373 31.7175ZM60.8239 24.8867C59.9834 24.8899 59.1627 25.142 58.4654 25.6113C57.768 26.0806 57.2254 26.7459 56.9059 27.5234C56.5865 28.3008 56.5045 29.1555 56.6705 29.9795C56.8364 30.8034 57.2427 31.5598 57.8382 32.153C58.4336 32.7462 59.1915 33.1497 60.0161 33.3125C60.8407 33.4753 61.6951 33.3901 62.4713 33.0677C63.2475 32.7454 63.9108 32.2002 64.3775 31.5011C64.8441 30.802 65.0931 29.9803 65.0931 29.1398C65.1014 28.5776 64.9965 28.0196 64.7847 27.4988C64.5728 26.978 64.2584 26.5051 63.8601 26.1083C63.4618 25.7115 62.9877 25.3988 62.4661 25.189C61.9446 24.9791 61.3861 24.8763 60.8239 24.8867ZM60.8239 31.7175C60.3063 31.7544 59.7896 31.6346 59.341 31.3737C58.8924 31.1129 58.5327 30.723 58.3088 30.2548C58.085 29.7866 58.0072 29.2619 58.0857 28.749C58.1642 28.236 58.3953 27.7585 58.749 27.3788C59.1026 26.999 59.5624 26.7345 60.0685 26.6197C60.5746 26.5049 61.1035 26.5451 61.5864 26.7352C62.0693 26.9252 62.4838 27.2562 62.7759 27.6851C63.0681 28.114 63.2243 28.6209 63.2243 29.1398C63.2401 29.4677 63.19 29.7953 63.0772 30.1035C62.9643 30.4118 62.791 30.6943 62.5673 30.9345C62.3436 31.1747 62.0742 31.3677 61.7747 31.5022C61.4753 31.6367 61.1521 31.7099 60.8239 31.7175ZM49.7451 26.1917V27.996H54.0628C54.0005 28.8423 53.6542 29.6428 53.08 30.2676C52.6474 30.7086 52.127 31.0541 51.5526 31.2816C50.9782 31.5091 50.3625 31.6137 49.7451 31.5886C48.4831 31.5715 47.2786 31.0582 46.3922 30.1597C45.5058 29.2612 45.0088 28.0499 45.0088 26.7877C45.0088 25.5256 45.5058 24.3142 46.3922 23.4157C47.2786 22.5172 48.4831 22.0039 49.7451 21.9868C50.9573 21.971 52.1268 22.4341 52.9995 23.2756L54.2722 22.0029C53.6768 21.4134 52.9696 20.9488 52.1923 20.6361C51.4149 20.3235 50.5829 20.1693 49.7451 20.1824C48.8696 20.1697 48.0003 20.3311 47.1877 20.6573C46.3752 20.9836 45.6356 21.4681 45.0119 22.0827C44.3883 22.6973 43.8931 23.4298 43.5551 24.2375C43.217 25.0452 43.043 25.9121 43.043 26.7877C43.043 27.6633 43.217 28.5302 43.5551 29.3379C43.8931 30.1456 44.3883 30.8781 45.0119 31.4927C45.6356 32.1074 46.3752 32.5919 47.1877 32.9181C48.0003 33.2443 48.8696 33.4058 49.7451 33.393C50.6006 33.4285 51.4538 33.2817 52.2482 32.9622C53.0426 32.6428 53.76 32.1581 54.3527 31.5403C55.4051 30.3916 55.9661 28.8765 55.9155 27.3194C55.9197 26.9413 55.8872 26.5636 55.8187 26.1917H49.7451ZM95.0534 27.5932C94.7978 26.8228 94.3113 26.1498 93.6599 25.6656C93.0085 25.1814 92.2238 24.9095 91.4124 24.8867C90.866 24.8901 90.3259 25.0043 89.8248 25.2223C89.3237 25.4404 88.872 25.7577 88.4971 26.1553C88.1221 26.5528 87.8317 27.0223 87.6433 27.5353C87.4549 28.0482 87.3725 28.5941 87.401 29.1398C87.3887 29.699 87.4892 30.2549 87.6966 30.7744C87.9039 31.2938 88.2139 31.7662 88.6078 32.1632C89.0018 32.5602 89.4718 32.8737 89.9897 33.085C90.5075 33.2963 91.0627 33.4011 91.6219 33.393C92.3226 33.3969 93.0132 33.2267 93.6318 32.8977C94.2504 32.5687 94.7777 32.0912 95.1661 31.5081L93.7162 30.5415C93.499 30.9022 93.1918 31.2003 92.8246 31.4065C92.4575 31.6127 92.043 31.7198 91.6219 31.7175C91.1886 31.7341 90.7603 31.6201 90.3926 31.3903C90.0249 31.1605 89.7347 30.8255 89.5597 30.4287L95.2468 28.0766L95.0534 27.5932ZM89.2537 29.011C89.2337 28.7015 89.2756 28.391 89.377 28.0979C89.4784 27.8047 89.6373 27.5347 89.8443 27.3037C90.0513 27.0726 90.3023 26.8852 90.5826 26.7524C90.8629 26.6195 91.1669 26.5439 91.4768 26.53C91.7995 26.5088 92.1213 26.583 92.4021 26.7435C92.6829 26.9039 92.9102 27.1434 93.0557 27.4322L89.2537 29.011ZM84.6299 33.1352H86.4987V20.6336H84.6299V33.1352ZM81.5689 25.8372H81.5045C81.2204 25.5285 80.8737 25.2841 80.4875 25.1201C80.1013 24.9562 79.6846 24.8766 79.2651 24.8867C78.1684 24.9334 77.1322 25.4019 76.3727 26.1944C75.6132 26.9869 75.1891 28.0422 75.1891 29.1399C75.1891 30.2376 75.6132 31.2928 76.3727 32.0853C77.1322 32.8778 78.1684 33.3463 79.2651 33.393C79.6862 33.4042 80.1047 33.3236 80.4914 33.1566C80.8781 32.9897 81.2239 32.7405 81.5045 32.4264H81.5689V33.0386C81.5689 34.6658 80.699 35.5357 79.2973 35.5357C78.8302 35.5245 78.377 35.3745 77.9954 35.1048C77.6138 34.8351 77.3212 34.4579 77.1547 34.0213L75.5275 34.698C75.8342 35.4447 76.3569 36.0828 77.0285 36.5305C77.7001 36.9783 78.4901 37.2153 79.2973 37.2112C81.4884 37.2112 83.3411 35.9224 83.3411 32.7808V25.1444H81.5689V25.8372ZM79.4263 31.7175C78.7804 31.6627 78.1786 31.3675 77.74 30.8901C77.3014 30.4127 77.058 29.7881 77.058 29.1399C77.058 28.4916 77.3014 27.867 77.74 27.3896C78.1786 26.9123 78.7804 26.617 79.4263 26.5622C79.7477 26.5779 80.0626 26.6581 80.3523 26.7981C80.642 26.9381 80.9005 27.135 81.1125 27.377C81.3245 27.6191 81.4855 27.9013 81.5861 28.2069C81.6867 28.5126 81.7247 28.8353 81.6978 29.1559C81.723 29.4745 81.6836 29.795 81.582 30.098C81.4804 30.4011 81.3188 30.6805 81.1067 30.9197C80.8947 31.1588 80.6366 31.3527 80.3478 31.4898C80.0591 31.6269 79.7457 31.7043 79.4263 31.7175ZM103.807 20.6338H99.3361V33.1352H101.202V28.3988H103.807C104.335 28.4277 104.863 28.3488 105.359 28.1667C105.856 27.9847 106.31 27.7034 106.693 27.34C107.077 26.9767 107.383 26.5389 107.592 26.0534C107.801 25.5679 107.909 25.0449 107.909 24.5163C107.909 23.9878 107.801 23.4648 107.592 22.9793C107.383 22.4938 107.077 22.056 106.693 21.6926C106.31 21.3292 105.856 21.0479 105.359 20.8659C104.863 20.6839 104.335 20.6049 103.807 20.6338ZM103.856 26.659H101.202V22.3737H103.856C104.141 22.3678 104.424 22.4189 104.689 22.5239C104.954 22.6289 105.196 22.7858 105.4 22.9853C105.603 23.1849 105.765 23.4231 105.876 23.686C105.986 23.9489 106.043 24.2312 106.043 24.5164C106.043 24.8015 105.986 25.0838 105.876 25.3467C105.765 25.6096 105.603 25.8478 105.4 26.0474C105.196 26.2469 104.954 26.4038 104.689 26.5088C104.424 26.6139 104.141 26.6649 103.856 26.659ZM115.387 24.8637C114.706 24.824 114.028 24.9839 113.437 25.3239C112.846 25.6639 112.366 26.1691 112.058 26.7776L113.715 27.4692C113.879 27.1672 114.128 26.9196 114.43 26.7568C114.733 26.5939 115.077 26.5229 115.419 26.5524C115.893 26.5062 116.365 26.6496 116.733 26.951C117.101 27.2525 117.334 27.6875 117.382 28.1607V28.2894C116.782 27.9711 116.114 27.8054 115.435 27.8069C113.65 27.8069 111.833 28.788 111.833 30.6215C111.85 31.0079 111.945 31.3869 112.112 31.736C112.278 32.0851 112.513 32.3971 112.803 32.6536C113.092 32.9101 113.43 33.1059 113.797 33.2292C114.164 33.3526 114.551 33.401 114.937 33.3717C115.407 33.3994 115.875 33.3006 116.294 33.0856C116.713 32.8706 117.066 32.5473 117.317 32.1494H117.382V33.1144H119.183V28.3216C119.183 26.1021 117.526 24.8637 115.387 24.8637ZM115.162 31.7151C114.551 31.7151 113.698 31.4096 113.698 30.6536C113.698 29.6887 114.76 29.3187 115.677 29.3187C116.272 29.3029 116.861 29.4473 117.382 29.7369C117.313 30.2792 117.05 30.7782 116.642 31.1419C116.234 31.5056 115.709 31.7092 115.162 31.7151ZM125.745 25.1371L123.606 30.5571H123.541L121.322 25.1371H119.312L122.641 32.7123L120.743 36.9261H122.689L127.82 25.1371H125.745ZM108.938 33.1352H110.803V20.6338H108.938V33.1352Z" fill="white"/>
<path d="M33.6 22.2663L29.3485 19.7438L25.8514 23.2201L29.0479 26.396L33.6 23.6933C33.722 23.6215 33.8234 23.5178 33.8936 23.3926C33.9639 23.2675 34.0006 23.1255 34 22.981C34.001 22.8362 33.9645 22.6936 33.8942 22.568C33.8239 22.4424 33.7224 22.3383 33.6 22.2663V22.2663ZM28.6269 19.3149L23.9485 16.5378L13.6959 11.1348L25.276 22.6471L28.6269 19.3149ZM13.8655 35.1348L23.9661 29.4134L28.3263 26.8249L25.276 23.793L13.8655 35.1348ZM13.0117 11.6008L13 34.8501L24.6994 23.2201L13.0117 11.6008Z" fill="white"/>
</svg>
