<svg width="518" height="220" viewBox="0 0 518 220" fill="none" xmlns="http://www.w3.org/2000/svg">
<path fill-rule="evenodd" clip-rule="evenodd" d="M480.368 107.276V68.7578C480.368 62.8255 477.721 59.3817 471.994 57.8544C471.535 57.7753 471.085 57.6509 470.65 57.4829C470.158 57.1947 469.689 56.8673 469.248 56.5041C469.689 56.1205 470.188 55.81 470.727 55.5841C477.627 53.9979 484.54 52.4647 491.447 50.9197C499.662 49.0799 507.878 47.2499 516.093 45.4297C516.658 45.3467 517.229 45.3053 517.8 45.3059C517.871 45.4592 517.935 45.6125 518 45.7659C517.413 46.2848 516.826 46.7978 516.24 47.3285C514.062 49.304 511.674 51.0907 509.785 53.3079C507.543 55.9321 506.657 59.2048 506.663 62.7429C506.698 93.4775 506.698 124.212 506.663 154.946C506.663 158.915 506.017 159.363 502.444 157.63C489.381 151.29 482.298 140.706 480.614 126.335C480.472 125.675 480.414 124.999 480.444 124.324C480.878 121.429 479.364 119.736 477.275 118.003C466.713 109.222 456.262 100.312 445.77 91.4253C445.382 91.101 444.972 90.8062 444.349 90.3226C444.314 91.0892 444.273 91.6258 444.273 92.1625C444.273 106.201 444.273 120.243 444.273 134.29C444.273 140.021 446.89 144.073 451.902 146.673C452.676 147.086 453.504 147.404 454.249 147.853C454.743 148.194 455.209 148.572 455.646 148.985C454.208 149.834 408.114 149.846 406.53 148.943C407.225 148.422 407.954 147.947 408.713 147.522C411.324 146.308 413.759 144.886 415.467 142.457C417.09 140.277 417.977 137.632 417.996 134.909C417.996 116.499 417.996 98.0888 417.996 79.6788C417.996 75.2561 415.549 72.0836 411.283 70.9101C410.109 70.5976 408.935 70.3912 407.838 70.0079C407.433 69.8664 407.152 69.3474 406.811 69.0054C407.181 68.7165 407.515 68.2329 407.92 68.1681C415.073 67.0654 422.233 65.9862 429.398 64.9838C430.039 65.0079 430.65 65.2657 431.117 65.7091C446.738 78.8788 462.345 92.0602 477.938 105.254L480.368 107.276Z" fill="#F5F5F5"/>
<path fill-rule="evenodd" clip-rule="evenodd" d="M271.294 79.7788H299.994C300.354 79.7502 300.716 79.7601 301.074 79.8083C301.907 79.9852 301.972 80.5159 301.409 80.9877C300.921 81.3714 300.379 81.6795 299.801 81.9017C298.39 82.4663 297.183 83.4479 296.34 84.7167C295.496 85.9855 295.056 87.4817 295.077 89.0074C294.924 94.4149 294.989 99.8223 295.077 105.23C295.074 105.742 295.172 106.25 295.367 106.724C295.561 107.198 295.847 107.628 296.209 107.989C296.571 108.35 297 108.635 297.473 108.828C297.946 109.02 298.452 109.116 298.962 109.11C305.737 109.173 312.517 109.173 319.3 109.11C319.812 109.135 320.322 109.055 320.802 108.876C321.282 108.696 321.72 108.421 322.091 108.067C322.462 107.712 322.757 107.286 322.959 106.814C323.161 106.341 323.266 105.832 323.267 105.318C323.361 99.7574 323.408 94.1849 323.197 88.63C323.183 87.1275 322.706 85.6664 321.83 84.4484C320.954 83.2305 319.724 82.3158 318.309 81.8309C318.159 81.7846 318.02 81.7106 317.898 81.6128C317.452 81.1705 317.024 80.7046 316.589 80.2506C317.114 80.0175 317.666 79.8549 318.232 79.767C327.34 79.7375 336.424 79.767 345.554 79.767C346.183 79.7625 346.802 79.9231 347.35 80.2329C346.974 80.6634 346.675 81.3061 346.206 81.483C341.717 83.1931 340.496 86.6723 340.519 91.1539C340.607 107.011 340.584 122.873 340.519 138.736C340.519 142.952 341.904 146.113 346.006 147.746C346.487 147.941 346.792 148.578 347.18 149.002C346.678 149.256 346.139 149.429 345.584 149.515C336.426 149.551 327.265 149.551 318.103 149.515C317.581 149.439 317.072 149.292 316.589 149.079C316.959 148.643 317.252 147.988 317.722 147.799C322.053 146.107 323.408 142.704 323.349 138.364C323.291 134.236 323.349 130.144 323.349 126.04C323.349 122.466 321.888 120.98 318.391 120.974C312.182 120.974 305.972 120.974 299.76 120.974C296.585 120.974 295.065 122.478 295.065 125.621C295.065 130.197 295.065 134.773 295.065 139.349C295.065 143.182 296.573 146.089 300.276 147.569C300.575 147.657 300.852 147.81 301.086 148.017C301.341 148.364 301.561 148.735 301.743 149.126C301.403 149.308 301.037 149.436 300.658 149.503C293.686 149.503 287.22 151.585 280.859 154.18C277.068 155.731 273.23 157.046 268.594 157.034C269.316 156.332 269.768 155.854 270.284 155.389C273.905 151.962 276.675 148.023 277.52 143.005C277.741 141.619 277.849 140.217 277.842 138.812C277.842 122.743 277.842 106.674 277.842 90.6055C277.842 86.4364 276.458 83.2108 272.338 81.5892C271.804 81.3769 271.417 80.7636 270.965 80.3331C271.076 80.1503 271.194 79.9675 271.294 79.7788Z" fill="#F5F5F5"/>
<path fill-rule="evenodd" clip-rule="evenodd" d="M150.593 100.223C150.552 101.037 150.499 101.527 150.499 101.992C150.499 114.264 150.499 126.535 150.499 138.801C150.499 142.928 151.86 146.107 155.927 147.646C156.225 147.739 156.497 147.903 156.719 148.124C156.925 148.377 157.159 148.778 157.089 149.032C157.018 149.285 156.555 149.474 156.261 149.48C154.348 149.521 152.435 149.48 150.522 149.48C143.121 149.48 135.721 149.48 128.323 149.48C127.737 149.48 127.15 149.368 126.563 149.309C126.498 149.15 126.428 148.996 126.363 148.837C126.819 148.374 127.336 147.977 127.901 147.658C131.879 146.072 133.305 142.94 133.305 138.895C133.305 122.726 133.305 106.557 133.305 90.3873C133.305 86.3421 131.909 83.1873 127.913 81.6305C127.614 81.545 127.339 81.3917 127.109 81.1823C126.892 80.8612 126.711 80.5171 126.569 80.1563C126.886 80.0147 127.197 79.7553 127.508 79.7553C133.147 79.7553 138.786 79.714 144.425 79.7553C145.007 79.8706 145.522 80.2063 145.863 80.6929C156.426 94.2793 166.988 107.881 177.551 121.499C177.882 122.002 178.34 122.409 178.877 122.679V120.597C178.877 110.513 178.877 100.424 178.877 90.3402C178.877 86.2536 177.457 83.1696 173.49 81.5892C173.053 81.4443 172.669 81.1712 172.387 80.8049C172.258 80.6044 172.498 80.0383 172.733 79.7907C172.968 79.543 173.32 79.7258 173.631 79.7258H201.258C201.716 79.7258 202.173 79.7848 203.189 79.8496C202.549 80.5926 202.256 81.2413 201.792 81.4182C197.238 83.1578 196.035 86.7254 196.059 91.2306C196.135 105.89 196.059 120.556 196.088 135.215C196.088 141.024 196.64 146.75 199.022 152.128C199.715 153.678 200.589 155.141 201.522 156.91C200.962 156.903 200.404 156.859 199.85 156.78C195.983 155.88 192.526 153.71 190.026 150.612C187.315 147.41 184.745 144.078 182.169 140.764C171.998 127.661 161.826 114.551 151.655 101.432C151.385 101.137 151.092 100.807 150.593 100.223Z" fill="#F5F5F5"/>
<path fill-rule="evenodd" clip-rule="evenodd" d="M256.301 66.4107C261.025 73.5728 264.568 81.4541 266.793 89.7506L266.365 90.0867C265.883 89.9734 265.412 89.8195 264.956 89.6267C263.442 88.8483 261.958 88.011 260.444 87.2208C257.213 85.5782 254.586 82.945 252.944 79.7023C247.821 69.9194 238.168 68.0383 230.428 70.0432C229.087 70.3675 227.844 71.0162 226.809 71.9328C225.773 72.8495 224.976 74.0064 224.487 75.303C223.998 76.5996 223.831 77.9967 224.001 79.3728C224.171 80.7489 224.674 82.0624 225.464 83.1991C226.818 85.0933 228.49 86.7356 230.405 88.0523C237.787 93.3123 245.31 98.3718 252.739 103.573C254.996 105.125 257.152 106.821 259.194 108.65C267.515 116.257 269.481 125.875 267.462 136.554C265.355 147.705 257.486 154.705 245.879 156.179C238.385 157.128 231.027 156.698 223.809 154.339C219.784 153.03 215.799 152.883 211.868 154.929C209.924 152.898 208.536 150.398 207.836 147.67C205.825 140.597 205.335 133.176 206.398 125.898C206.445 125.55 206.551 125.208 206.745 124.371C207.431 125.515 207.918 126.329 208.394 127.119C210.788 130.934 212.9 134.974 215.647 138.512C221.562 146.131 229.366 150.471 239.154 150.406C248.338 150.347 252.95 142.15 250.89 134.667C250.081 131.719 247.915 129.725 245.498 128.033C238.108 122.879 230.71 117.733 223.304 112.595C221.65 111.416 220.012 110.236 218.422 109.004C210.09 102.488 206.422 89.9628 210.295 80.3391C213.874 71.4408 220.963 66.8884 230.088 65.2019C236.038 64.1051 241.824 65.3316 247.604 66.5582C250.503 67.1773 253.396 67.8909 256.301 66.4107Z" fill="#F5F5F5"/>
<path fill-rule="evenodd" clip-rule="evenodd" d="M59.6433 152.499C66.7789 147.192 71.7844 140.8 70.3525 130.916L59.1269 137.267C60.7476 133.612 62.8112 130.172 65.2708 127.024C72.5941 117.383 82.4173 111.339 93.6958 107.647C98.179 106.179 102.926 105.489 107.591 104.646C109.07 104.38 110.678 104.681 112.204 104.876C113.307 105.023 113.9 105.637 113.595 106.957C113.39 107.976 113.329 109.018 113.413 110.053C113.548 112.5 114.645 114.264 117.051 115.136C119.04 115.856 121.082 116.569 122.279 118.533C122.561 118.999 122.778 119.506 123.148 120.237C122.25 120.296 121.604 120.361 120.965 120.373C111.124 120.538 101.342 121.31 91.6948 123.398C87.7984 124.247 87.7984 124.241 87.7984 128.281C87.7984 131.819 87.7984 135.357 87.7984 138.895C87.7984 141.873 89.33 143.382 92.3051 143.388C96.4128 143.388 100.479 143.318 104.564 143.388C111.177 143.536 116.3 140.723 120.026 135.428C121.657 133.122 122.878 130.521 124.392 127.862C124.567 128.563 124.686 129.277 124.75 129.997C124.808 136.483 123.294 142.651 121.129 148.701C120.765 149.716 120.073 149.515 119.369 149.515C110.678 149.515 101.982 149.615 93.2968 149.515C82.8105 149.368 72.4181 149.963 62.1959 152.528C61.4398 152.673 60.6754 152.769 59.9073 152.817L59.6433 152.499Z" fill="#F5F5F5"/>
<path fill-rule="evenodd" clip-rule="evenodd" d="M358.065 148.737C358.603 148.415 359.164 148.133 359.743 147.893C361.011 147.457 362.337 147.174 363.593 146.714C367.624 145.193 369.385 142.586 369.385 138.311C369.385 122.586 369.385 106.881 369.385 91.195C369.385 86.6485 367.46 83.9536 363.129 82.4853C361.956 82.0843 360.747 81.8012 359.608 81.3944C359.052 81.1485 358.514 80.8607 358.001 80.5334C359.174 79.6312 397.399 79.472 399.288 80.3683C398.812 80.745 398.296 81.0692 397.751 81.3354C396.489 81.7894 395.175 82.0961 393.913 82.5148C389.647 84.0185 387.799 86.6426 387.799 91.1655V138.281C387.799 142.451 389.442 144.998 393.309 146.567C394.788 147.156 396.372 147.498 397.88 148.035C398.303 148.188 398.614 148.625 398.977 148.967C398.589 149.225 398.158 149.411 397.704 149.515C384.97 149.543 372.238 149.543 359.509 149.515C359.074 149.477 358.644 149.398 358.224 149.279C358.141 149.114 358.141 148.925 358.065 148.737Z" fill="#F5F5F5"/>
<path fill-rule="evenodd" clip-rule="evenodd" d="M206.498 53.744C202.918 54.4162 199.609 55.2595 196.246 55.6369C185.508 56.8163 174.757 57.8718 164.212 60.3898C158.122 61.8214 152.216 63.9503 146.608 66.7348C146.145 66.9648 145.71 67.2478 145.264 67.5073L145.44 67.9083C146.943 67.4896 148.439 67.065 150.176 66.5697C150.105 69.1584 151.878 69.9132 153.697 70.6562C155.052 71.2047 156.378 71.8356 157.711 72.4253L157.623 72.9442C156.619 72.9442 155.616 72.9855 154.612 72.9442C147.295 72.6199 140.429 70.7978 134.32 66.5874C132.378 65.2547 130.7 63.692 130.084 61.2271C129.926 60.7696 129.921 60.273 130.069 59.8123C130.217 59.3516 130.511 58.952 130.905 58.6738C138.117 52.4231 146.285 47.853 155.14 44.4328C165.54 40.5031 176.176 37.2395 186.986 34.6617C189.921 33.9305 192.098 34.8327 193.764 37.4332C194.885 39.2023 195.906 40.9714 196.986 42.7404C198.547 45.3056 200.43 47.8 203.135 48.9498C205.348 49.9346 205.7 51.5563 206.498 53.744Z" fill="#F5F5F5"/>
<path fill-rule="evenodd" clip-rule="evenodd" d="M316.772 72.4018L321.296 70.4617C322.74 69.8366 324.172 69.2233 324.359 67.3069C324.359 67.1241 325.257 66.8292 325.668 66.9177C326.906 67.1889 328.109 67.6253 329.33 67.9968L329.506 67.6076C329.06 67.354 328.625 67.0828 328.168 66.8469C320.251 62.8534 311.747 60.1617 302.982 58.8743C294.86 57.6124 286.68 56.7809 278.541 55.6429C275.484 55.2183 272.468 54.4635 269.434 53.8738C269.017 53.7571 268.609 53.6093 268.213 53.4315C268.841 51.5504 269.211 49.9583 271.411 49.0089C274.122 47.8295 276 45.3587 277.573 42.7995C278.659 41.0304 279.674 39.2201 280.789 37.4923C282.42 34.933 284.497 33.9542 287.414 34.6972C300.376 37.8756 313.233 41.4845 325.421 46.9921C332.031 49.9798 338.174 53.9147 343.659 58.6738C344.598 59.4876 344.939 60.3721 344.381 61.3805C343.595 62.8017 342.867 64.441 341.653 65.4081C334.582 71.0514 326.337 73.1035 317.435 72.8853C317.285 72.8655 317.14 72.8196 317.007 72.7497C316.965 72.6907 316.948 72.6258 316.772 72.4018Z" fill="#F5F5F5"/>
<path fill-rule="evenodd" clip-rule="evenodd" d="M267.034 30.251C266.159 30.6225 265.273 31.0411 264.399 31.3714C260.191 32.934 255.931 34.3729 251.776 36.0535C249.86 36.7998 248.119 37.9385 246.665 39.3974C245.21 40.8562 244.073 42.6032 243.326 44.5273C241.566 48.944 240.075 53.4787 238.473 57.9604C238.418 58.2662 238.323 58.5635 238.192 58.8449C237.94 59.1869 237.564 59.6999 237.265 59.6823C236.965 59.6646 236.496 59.1751 236.373 58.8036C235.698 56.7338 235.252 54.5815 234.448 52.5706C233.034 49.0325 231.514 45.4944 229.853 42.0565C228.41 39.1434 225.798 37.3036 222.894 36.1125C218.692 34.3906 214.379 32.9517 210.125 31.3655C209.245 31.0352 208.399 30.5989 207.543 30.2156C207.543 30.021 207.543 29.8323 207.513 29.6259C208.411 29.2131 209.274 28.7414 210.213 28.4052C213.81 27.1138 217.431 25.8991 221.016 24.59C223.552 23.735 225.862 22.3102 227.768 20.424C229.675 18.5378 231.128 16.2397 232.019 13.7043C233.433 9.86547 234.694 5.97353 236.021 2.09929C236.055 1.89683 236.112 1.69897 236.191 1.5096C236.543 0.99657 236.936 0.501234 237.317 0C237.745 0.477313 238.107 1.01097 238.391 1.58626C239.289 4.28703 240.152 7.00548 240.932 9.74753C243.35 18.2331 248.731 23.6936 257.204 26.0937C259.687 26.8013 262.122 27.6563 264.563 28.4996C265.408 28.7885 266.206 29.2367 267.022 29.6082C267.028 29.8264 267.028 30.0387 267.034 30.251Z" fill="#F5F5F5"/>
<path fill-rule="evenodd" clip-rule="evenodd" d="M120.795 100.329C120.061 98.7608 119.422 97.1392 118.582 95.6119C116.112 91.1657 112.867 87.5627 107.75 86.1769C106.555 85.8553 105.325 85.6791 104.088 85.6521C100.157 85.5872 96.225 85.6226 92.2875 85.6521C89.3534 85.6521 87.816 87.1971 87.8042 90.175C87.8042 95.2758 87.8042 100.371 87.7573 105.466C87.7361 105.793 87.643 106.113 87.4848 106.4C87.3265 106.687 87.107 106.936 86.8419 107.129C80.8668 110.092 75.379 113.958 70.5696 118.592V116.693C70.5462 107.958 70.5247 99.2228 70.5051 90.4875C70.5051 84.3961 68.3222 79.4545 63.0291 76.1404C62.7386 75.9316 62.4657 75.6988 62.2135 75.4446C62.2135 75.4446 62.2135 75.3503 62.1841 75.0613C62.9411 75.138 63.6746 75.1557 64.3964 75.2913C70.1354 76.3704 75.8333 77.8741 81.6193 78.4579C89.5881 79.254 97.6157 79.4073 105.626 79.7316C109.24 79.8732 112.873 79.7788 116.493 79.7316C117.391 79.7316 117.878 79.9557 118.183 80.8756C119.991 86.3302 121.276 91.8733 121.34 97.6463C121.313 98.5362 121.238 99.4239 121.117 100.306L120.795 100.329Z" fill="#F5F5F5"/>
<path fill-rule="evenodd" clip-rule="evenodd" d="M367.226 105.247V121.499L345.232 120.113C346.212 118.904 346.91 117.755 347.867 116.964C348.711 116.278 349.685 115.77 350.731 115.472C354.251 114.393 355.472 112.306 355.179 108.149C354.961 105.106 355.179 104.61 358.259 104.61C361.223 104.599 364.192 105.017 367.226 105.247Z" fill="#F5F5F5"/>
<path fill-rule="evenodd" clip-rule="evenodd" d="M409.335 137.167C403.354 133.449 397.073 130.243 390.557 127.585C390.353 127.474 390.177 127.318 390.044 127.127C389.911 126.937 389.823 126.718 389.788 126.488C389.73 122.655 389.753 118.822 389.753 114.694C398.702 120.296 405.004 127.832 409.335 137.167Z" fill="#F5F5F5"/>
<path d="M129.074 175.694H143.2C143.76 175.863 144.105 176.159 144.237 176.581V176.75C141.899 177.961 140.73 179.411 140.73 181.1V203.95C140.73 205.64 141.899 207.09 144.237 208.301V208.47C144.138 208.948 143.793 209.23 143.2 209.314H129.074C128.416 209.23 128.07 208.948 128.037 208.47V208.301C130.408 207.09 131.593 205.64 131.593 203.95V181.1C131.593 179.411 130.408 177.961 128.037 176.75V176.581C128.169 176.159 128.515 175.863 129.074 175.694Z" fill="#F5F5F5"/>
<path d="M162.637 175.779H173.503C174.425 175.694 175.084 175.962 175.479 176.581C181.801 189.393 184.962 196.038 184.962 196.517H185.16C190.494 184.127 193.572 177.327 194.396 176.117C194.758 175.863 195.169 175.751 195.63 175.779H203.385C203.549 175.779 203.763 175.948 204.027 176.286V209.23C201.228 209.258 199.088 208.864 197.606 208.047C196.157 207.231 195.433 206.09 195.433 204.626V186.127H195.186L185.851 208.174L184.517 208.258C182.509 208.258 181.126 207.723 180.369 206.653C177.372 199.755 174.129 192.518 170.639 184.944H170.441V204.626C170.441 206.71 169.272 208.132 166.934 208.892C165.98 209.173 165.387 209.286 165.156 209.23L164.909 208.892V182.156C164.909 179.538 163.675 177.707 161.205 176.666C161.37 176.074 161.847 175.779 162.637 175.779ZM165.107 209.23C164.975 209.23 164.909 209.173 164.909 209.061C164.909 208.948 164.909 208.836 164.909 208.723C165.173 208.836 165.305 208.948 165.305 209.061C165.305 209.202 165.239 209.258 165.107 209.23Z" fill="#F5F5F5"/>
<path d="M241.496 185.366H242.483C247.785 185.366 251.291 188.055 253.004 193.433C253.3 194.813 253.448 195.968 253.448 196.897V197.699C253.448 203.134 251.193 206.85 246.682 208.85C244.838 209.3 243.438 209.525 242.483 209.525H241.347C238.845 209.525 236.853 208.864 235.371 207.54V213.622C235.371 216.607 233.593 218.634 230.037 219.704C229.51 219.901 228.786 220 227.864 220H227.716C227.452 220 227.321 219.901 227.321 219.704V192.631C227.321 190.632 226.234 189.139 224.061 188.154V187.858C224.225 187.549 224.522 187.351 224.95 187.267C230.482 186.253 233.692 185.676 234.581 185.535C234.877 185.648 235.009 185.803 234.976 186C234.976 186.957 234.976 187.534 234.976 187.732C236.919 186.155 239.092 185.366 241.496 185.366ZM235.371 190.941V203.95C236.622 205.245 238.153 205.893 239.964 205.893C242.796 205.893 244.459 203.697 244.953 199.304V196.517C244.953 192.715 243.8 190.322 241.496 189.337L240.36 189.168H239.224C237.775 189.168 236.491 189.759 235.371 190.941Z" fill="#F5F5F5"/>
<path d="M283.454 188.914C282.302 188.914 281.281 189.435 280.392 190.477C279.503 191.491 279.058 193.222 279.058 195.672H288.887C288.986 193.532 288.508 191.871 287.455 190.688C286.401 189.477 285.067 188.886 283.454 188.914ZM283.503 185.746C289.924 185.746 294.205 188.295 296.345 193.391C296.971 195.052 297.168 196.812 296.938 198.671C296.971 199.29 296.674 199.6 296.049 199.6L279.206 199.684C278.976 199.628 278.894 199.741 278.959 200.022C278.992 203.063 280.787 204.894 284.343 205.513C287.899 206.132 291.241 205.485 294.369 203.57C294.468 203.486 294.583 203.472 294.715 203.528C295.11 203.781 295.555 204.161 296.049 204.668C296.246 204.837 296.279 204.992 296.147 205.133C292.723 208.427 288.525 209.962 283.553 209.737C277.395 209.539 273.214 206.935 271.008 201.923C270.711 200.768 270.563 199.727 270.563 198.797V197.15C271.617 189.632 275.93 185.831 283.503 185.746Z" fill="#F5F5F5"/>
<path d="M323.997 174.765C324.26 174.821 324.375 174.976 324.342 175.23V196.432L331.109 190.055C331.603 188.703 330.813 187.732 328.738 187.14V186.971C328.837 186.633 329.084 186.422 329.479 186.338H341.678C342.074 186.394 342.321 186.605 342.419 186.971V187.14C341.464 187.337 340.493 187.816 339.505 188.576L332.442 194.912V195.123C337.447 202.331 340.477 206.287 341.53 206.991C342.386 207.639 343.407 208.132 344.593 208.47V208.807C344.593 208.948 344.411 209.103 344.049 209.272H340.049C335.603 209.272 332.41 207.526 330.467 204.035C328.755 201.557 327.701 199.994 327.306 199.346C327.141 199.346 326.153 200.219 324.342 201.965V202.768C324.342 206.4 321.922 208.512 317.082 209.103C316.72 209.159 316.539 209.005 316.539 208.638V181.1C316.539 179.552 315.501 178.299 313.427 177.341C313.394 176.835 313.723 176.511 314.415 176.37L323.997 174.765Z" fill="#F5F5F5"/>
<path d="M389.32 175.863C389.748 175.919 390.012 176.159 390.111 176.581V177.13L373.318 204.161V204.288H386.505C388.316 204.288 389.617 203.739 390.407 202.641C390.901 202.754 391.164 202.993 391.197 203.359C390.539 206.034 390.028 207.808 389.666 208.681C389.468 208.906 389.172 209.019 388.777 209.019H360.279C359.686 208.821 359.521 208.441 359.785 207.878L377.417 180.002H367.193C364.592 180.059 362.814 180.65 361.859 181.776H361.662C361.168 181.72 360.954 181.467 361.02 181.016C361.448 178.763 361.793 177.158 362.057 176.201C362.188 175.976 362.386 175.863 362.649 175.863H389.32Z" fill="#F5F5F5"/>
<path d="M16.5685 51.0819H51.2118C52.1044 51.0819 52.8854 51.6823 53.5548 52.8832V142.227C53.5548 156.958 44.3501 167.525 25.9406 173.93C18.5768 175.931 10.711 176.932 2.34302 176.932C1.11573 176.772 0.334717 176.211 0 175.251C16.2896 169.567 24.4344 158.799 24.4344 142.948V70.5358C24.4344 63.4908 20.0273 57.9668 11.213 53.9639V53.4836C11.994 51.8824 13.7792 51.0819 16.5685 51.0819Z" fill="#F5F5F5"/>
</svg>
