<svg width="113" height="48" viewBox="0 0 113 48" fill="none" xmlns="http://www.w3.org/2000/svg">
<path fill-rule="evenodd" clip-rule="evenodd" d="M104.791 23.4057V15.0017C104.791 13.7074 104.213 12.956 102.964 12.6228C102.864 12.6055 102.766 12.5784 102.671 12.5417C102.563 12.4788 102.461 12.4074 102.365 12.3282C102.461 12.2445 102.57 12.1767 102.687 12.1274C104.193 11.7814 105.701 11.4468 107.208 11.1098C109 10.7083 110.792 10.3091 112.584 9.91194C112.707 9.89383 112.832 9.8848 112.956 9.88492C112.972 9.91837 112.986 9.95183 113 9.98528C112.872 10.0985 112.744 10.2104 112.616 10.3262C112.141 10.7572 111.62 11.1471 111.208 11.6308C110.719 12.2034 110.526 12.9174 110.527 13.6894C110.534 20.3951 110.534 27.1008 110.527 33.8065C110.527 34.6724 110.386 34.7702 109.606 34.3919C106.757 33.0088 105.212 30.6994 104.844 27.564C104.813 27.4199 104.801 27.2725 104.807 27.1252C104.902 26.4935 104.572 26.1243 104.116 25.746C101.812 23.8303 99.532 21.8862 97.2432 19.9473C97.1587 19.8766 97.0691 19.8123 96.9334 19.7068C96.9257 19.874 96.9167 19.9911 96.9167 20.1082C96.9167 23.1711 96.9167 26.2349 96.9167 29.2996C96.9167 30.5501 97.4877 31.434 98.5809 32.0014C98.7498 32.0915 98.9303 32.161 99.0929 32.2587C99.2006 32.3331 99.3025 32.4157 99.3976 32.5058C99.084 32.691 89.0287 32.6936 88.6831 32.4968C88.8348 32.3829 88.9939 32.2794 89.1593 32.1867C89.729 31.9216 90.2602 31.6116 90.6327 31.0815C90.9868 30.6059 91.1802 30.0287 91.1844 29.4347C91.1844 25.4179 91.1844 21.4012 91.1844 17.3845C91.1844 16.4195 90.6506 15.7273 89.72 15.4713C89.464 15.4031 89.2079 15.3581 88.9686 15.2745C88.8802 15.2436 88.8188 15.1303 88.7445 15.0557C88.8252 14.9927 88.8981 14.8872 88.9865 14.873C90.5469 14.6324 92.1087 14.397 93.6717 14.1783C93.8117 14.1835 93.945 14.2398 94.0467 14.3365C97.4544 17.2099 100.859 20.0859 104.261 22.9644L104.791 23.4057Z" fill="#F5F5F5"/>
<path fill-rule="evenodd" clip-rule="evenodd" d="M59.1818 17.4063H65.4428C65.5213 17.4 65.6003 17.4022 65.6783 17.4127C65.8601 17.4513 65.8742 17.5671 65.7513 17.67C65.645 17.7538 65.5267 17.821 65.4006 17.8695C65.0928 17.9926 64.8295 18.2068 64.6455 18.4836C64.4615 18.7605 64.3655 19.0869 64.3701 19.4198C64.3368 20.5996 64.3509 21.7794 64.3701 22.9592C64.3694 23.071 64.3909 23.1818 64.4333 23.2852C64.4757 23.3886 64.5382 23.4824 64.6171 23.5612C64.696 23.64 64.7897 23.7022 64.8928 23.7442C64.9959 23.7862 65.1063 23.8072 65.2175 23.8058C66.6956 23.8195 68.1745 23.8195 69.6544 23.8058C69.7659 23.8112 69.8773 23.7938 69.9819 23.7547C70.0865 23.7156 70.1822 23.6555 70.2631 23.5782C70.344 23.5009 70.4084 23.4078 70.4525 23.3048C70.4966 23.2017 70.5195 23.0907 70.5197 22.9785C70.5402 21.7653 70.5504 20.5494 70.5043 19.3375C70.5014 19.0096 70.3972 18.6908 70.2062 18.4251C70.0151 18.1594 69.7467 17.9598 69.438 17.854C69.4054 17.8439 69.375 17.8278 69.3484 17.8064C69.2511 17.7099 69.1577 17.6083 69.0629 17.5092C69.1773 17.4584 69.2978 17.4229 69.4214 17.4037C71.4081 17.3973 73.3897 17.4037 75.3815 17.4037C75.5187 17.4027 75.6537 17.4378 75.7732 17.5054C75.6913 17.5993 75.626 17.7395 75.5236 17.7781C74.5443 18.1512 74.2781 18.9103 74.2832 19.8881C74.3024 23.3478 74.2973 26.8087 74.2832 30.2696C74.2832 31.1895 74.5853 31.8791 75.4801 32.2355C75.5851 32.278 75.6516 32.4169 75.7361 32.5096C75.6266 32.565 75.5091 32.6027 75.3879 32.6215C73.3901 32.6292 71.3919 32.6292 69.3932 32.6215C69.2794 32.6048 69.1683 32.5728 69.0629 32.5263C69.1436 32.4311 69.2076 32.2883 69.31 32.2471C70.2547 31.8779 70.5504 31.1355 70.5376 30.1886C70.5248 29.288 70.5376 28.3951 70.5376 27.4996C70.5376 26.7199 70.2189 26.3957 69.4559 26.3944C68.1016 26.3944 66.7468 26.3944 65.3916 26.3944C64.6991 26.3944 64.3675 26.7225 64.3675 27.4082C64.3675 28.4066 64.3675 29.405 64.3675 30.4034C64.3675 31.2397 64.6965 31.874 65.5042 32.1969C65.5696 32.2161 65.6299 32.2495 65.6809 32.2947C65.7366 32.3704 65.7846 32.4514 65.8243 32.5366C65.7501 32.5763 65.6702 32.6041 65.5874 32.6189C64.0667 32.6189 62.656 33.0731 61.2684 33.6392C60.4414 33.9776 59.6042 34.2645 58.5929 34.2619C58.7504 34.1088 58.849 34.0046 58.9616 33.903C59.7514 33.1554 60.3557 32.296 60.54 31.2011C60.5884 30.8986 60.6119 30.5927 60.6104 30.2863C60.6104 26.7804 60.6104 23.2744 60.6104 19.7685C60.6104 18.8589 60.3083 18.1551 59.4097 17.8013C59.2932 17.755 59.2087 17.6212 59.1101 17.5272C59.1344 17.4873 59.16 17.4475 59.1818 17.4063Z" fill="#F5F5F5"/>
<path fill-rule="evenodd" clip-rule="evenodd" d="M32.8513 21.8669C32.8424 22.0445 32.8309 22.1512 32.8309 22.2529C32.8309 24.9303 32.8309 27.6077 32.8309 30.2838C32.8309 31.1844 33.1278 31.8779 34.015 32.2137C34.08 32.2341 34.1392 32.2698 34.1878 32.3179C34.2326 32.3732 34.2838 32.4607 34.2684 32.516C34.253 32.5713 34.1519 32.6125 34.0879 32.6138C33.6706 32.6228 33.2533 32.6138 32.836 32.6138C31.2213 32.6138 29.6071 32.6138 27.9933 32.6138C27.8653 32.6138 27.7373 32.5894 27.6093 32.5765C27.5952 32.5418 27.5799 32.5083 27.5658 32.4736C27.6651 32.3726 27.778 32.2859 27.9012 32.2162C28.7691 31.8701 29.0801 31.187 29.0801 30.3044C29.0801 26.7765 29.0801 23.2487 29.0801 19.7209C29.0801 18.8383 28.7755 18.1499 27.9037 17.8103C27.8386 17.7916 27.7786 17.7582 27.7283 17.7125C27.6811 17.6424 27.6416 17.5674 27.6106 17.4886C27.6797 17.4578 27.7475 17.4012 27.8154 17.4012C29.0456 17.4012 30.2758 17.3921 31.5059 17.4012C31.6327 17.4263 31.7451 17.4996 31.8196 17.6057C34.1238 20.57 36.4279 23.5378 38.7321 26.5089C38.8045 26.6187 38.9042 26.7074 39.0214 26.7662V26.3121C39.0214 24.112 39.0214 21.9107 39.0214 19.7106C39.0214 18.819 38.7117 18.1461 37.8463 17.8013C37.7509 17.7697 37.6671 17.7101 37.6056 17.6302C37.5775 17.5864 37.63 17.4629 37.6812 17.4089C37.7324 17.3548 37.8092 17.3947 37.877 17.3947H43.9038C44.0036 17.3947 44.1035 17.4076 44.3249 17.4217C44.1854 17.5838 44.1214 17.7254 44.0203 17.764C43.0269 18.1435 42.7645 18.9219 42.7696 19.9049C42.7862 23.1033 42.7696 26.3031 42.776 29.5015C42.776 30.7688 42.8963 32.0181 43.416 33.1915C43.5671 33.5299 43.7578 33.8489 43.9614 34.2349C43.8393 34.2333 43.7174 34.2238 43.5965 34.2066C42.7531 34.0102 41.999 33.5366 41.4536 32.8608C40.8622 32.1622 40.3015 31.4353 39.7396 30.7122C37.5207 27.8534 35.3019 24.9929 33.083 22.1307C33.0241 22.0663 32.9601 21.9943 32.8513 21.8669Z" fill="#F5F5F5"/>
<path fill-rule="evenodd" clip-rule="evenodd" d="M55.9112 14.4896C56.9417 16.0522 57.7146 17.7718 58.2 19.5819L58.1066 19.6553C58.0015 19.6306 57.8988 19.597 57.7993 19.5549C57.4691 19.3851 57.1452 19.2024 56.8149 19.03C56.1102 18.6716 55.5372 18.0971 55.179 17.3896C54.0614 15.2551 51.9557 14.8447 50.2672 15.2822C49.9745 15.3529 49.7034 15.4944 49.4776 15.6944C49.2517 15.8944 49.0778 16.1469 48.9711 16.4298C48.8644 16.7126 48.828 17.0175 48.8651 17.3177C48.9023 17.6179 49.0118 17.9045 49.1842 18.1525C49.4795 18.5658 49.8443 18.9241 50.2621 19.2114C51.8724 20.359 53.5135 21.4629 55.1342 22.5977C55.6265 22.9364 56.0969 23.3064 56.5423 23.7055C58.3575 25.3652 58.7863 27.4636 58.3459 29.7936C57.8864 32.2266 56.1698 33.7537 53.6377 34.0754C52.003 34.2825 50.3978 34.1886 48.8232 33.674C47.9451 33.3883 47.0759 33.3562 46.2182 33.8026C45.7943 33.3596 45.4913 32.8141 45.3388 32.2188C44.9 30.6758 44.7931 29.0565 45.0252 27.4687C45.0354 27.3928 45.0584 27.3182 45.1007 27.1355C45.2505 27.3851 45.3567 27.5627 45.4604 27.7351C45.9827 28.5675 46.4435 29.4488 47.0426 30.2208C48.3329 31.883 50.0355 32.83 52.1707 32.8158C54.1741 32.8029 55.1802 31.0146 54.7309 29.3819C54.5543 28.7386 54.0819 28.3037 53.5545 27.9345C51.9424 26.81 50.3286 25.6872 48.7131 24.5662C48.3521 24.3089 47.995 24.0516 47.6481 23.7827C45.8303 22.361 45.0303 19.6283 45.8751 17.5285C46.656 15.5871 48.2024 14.5938 50.1929 14.2259C51.491 13.9866 52.7532 14.2542 54.0141 14.5218C54.6464 14.6569 55.2775 14.8126 55.9112 14.4896Z" fill="#F5F5F5"/>
<path fill-rule="evenodd" clip-rule="evenodd" d="M13.011 33.2725C14.5676 32.1146 15.6595 30.7199 15.3472 28.5636L12.8983 29.9492C13.2519 29.1517 13.7021 28.4011 14.2386 27.7144C15.8362 25.6109 17.9791 24.2921 20.4394 23.4867C21.4174 23.1663 22.453 23.0158 23.4707 22.8318C23.7933 22.7739 24.1441 22.8395 24.4769 22.882C24.7176 22.9142 24.8468 23.048 24.7803 23.3362C24.7356 23.5583 24.7223 23.7857 24.7406 24.0116C24.77 24.5456 25.0094 24.9303 25.5343 25.1207C25.9682 25.2776 26.4137 25.4333 26.6748 25.8617C26.7363 25.9634 26.7836 26.074 26.8643 26.2336C26.6684 26.2464 26.5276 26.2606 26.3881 26.2632C24.2414 26.2992 22.1074 26.4677 20.0029 26.9232C19.1529 27.1085 19.1529 27.1072 19.1529 27.9885C19.1529 28.7604 19.1529 29.5324 19.1529 30.3043C19.1529 30.9541 19.487 31.2834 20.1361 31.2847C21.0321 31.2847 21.9192 31.2693 22.8102 31.2847C24.2529 31.3169 25.3704 30.7032 26.1833 29.5478C26.5391 29.0448 26.8054 28.4774 27.1357 27.8971C27.1738 28.0501 27.1999 28.2058 27.2138 28.3629C27.2266 29.7781 26.8963 31.1239 26.4239 32.4439C26.3446 32.6652 26.1935 32.6215 26.0399 32.6215C24.1441 32.6215 22.2469 32.6434 20.3524 32.6215C18.0648 32.5893 15.7978 32.7193 13.5678 33.2789C13.4029 33.3104 13.2361 33.3314 13.0686 33.342L13.011 33.2725Z" fill="#F5F5F5"/>
<path fill-rule="evenodd" clip-rule="evenodd" d="M78.1107 32.4516C78.2281 32.3814 78.3505 32.3199 78.4768 32.2677C78.7533 32.1724 79.0426 32.1107 79.3166 32.0103C80.196 31.6784 80.58 31.1097 80.58 30.1769C80.58 26.746 80.58 23.3194 80.58 19.8971C80.58 18.9051 80.1602 18.3172 79.2154 17.9968C78.9594 17.9093 78.6957 17.8475 78.4474 17.7588C78.3259 17.7051 78.2087 17.6423 78.0966 17.5709C78.3527 17.3741 86.6913 17.3393 87.1035 17.5349C86.9995 17.6171 86.887 17.6878 86.7681 17.7459C86.4928 17.845 86.2061 17.9119 85.9309 18.0032C85.0002 18.3313 84.597 18.9038 84.597 19.8906V30.1705C84.597 31.0801 84.9555 31.6359 85.799 31.9782C86.1216 32.1068 86.4672 32.1814 86.7962 32.2985C86.8884 32.332 86.9562 32.4272 87.0356 32.5018C86.951 32.5583 86.8569 32.5988 86.7578 32.6215C83.98 32.6275 81.2026 32.6275 78.4256 32.6215C78.3308 32.6131 78.2369 32.5958 78.1453 32.57C78.1274 32.534 78.1274 32.4928 78.1107 32.4516Z" fill="#F5F5F5"/>
<path fill-rule="evenodd" clip-rule="evenodd" d="M45.0468 11.726C44.266 11.8726 43.544 12.0566 42.8105 12.139C40.4679 12.3963 38.1227 12.6266 35.8224 13.176C34.4938 13.4883 33.2053 13.9528 31.9821 14.5603C31.881 14.6105 31.7862 14.6723 31.6889 14.7289L31.7273 14.8164C32.055 14.725 32.3815 14.6324 32.7604 14.5243C32.745 15.0891 33.1316 15.2538 33.5284 15.4159C33.8241 15.5356 34.1135 15.6732 34.404 15.8019L34.3848 15.9151C34.1659 15.9151 33.947 15.9241 33.7281 15.9151C32.1318 15.8443 30.6341 15.4468 29.3015 14.5282C28.8778 14.2374 28.5117 13.8964 28.3773 13.3586C28.3429 13.2588 28.3418 13.1505 28.3742 13.05C28.4065 12.9494 28.4705 12.8623 28.5565 12.8016C30.1298 11.4378 31.9117 10.4407 33.8434 9.69444C36.1119 8.83704 38.4323 8.12499 40.7905 7.56256C41.4305 7.40302 41.9055 7.59987 42.269 8.16725C42.5135 8.55323 42.7363 8.93921 42.9718 9.32519C43.3123 9.88485 43.7232 10.4291 44.3133 10.68C44.7959 10.8948 44.8727 11.2486 45.0468 11.726Z" fill="#F5F5F5"/>
<path fill-rule="evenodd" clip-rule="evenodd" d="M69.1027 15.7967L70.0897 15.3735C70.4046 15.2371 70.717 15.1033 70.7579 14.6851C70.7579 14.6452 70.9538 14.5809 71.0434 14.6002C71.3135 14.6594 71.5759 14.7546 71.8422 14.8357L71.8806 14.7508C71.7833 14.6954 71.6886 14.6362 71.5887 14.5848C69.8616 13.7135 68.0066 13.1262 66.0945 12.8453C64.3228 12.57 62.5383 12.3886 60.7628 12.1403C60.0959 12.0476 59.4379 11.8829 58.7761 11.7543C58.6851 11.7288 58.5961 11.6966 58.5099 11.6578C58.6468 11.2474 58.7275 10.9 59.2075 10.6928C59.7989 10.4355 60.2086 9.89645 60.5516 9.33807C60.7884 8.95209 61.0099 8.55711 61.2531 8.18013C61.609 7.62175 62.0621 7.40818 62.6984 7.57029C65.5261 8.26376 68.3308 9.05116 70.9896 10.2528C72.4314 10.9047 73.7715 11.7632 74.9682 12.8016C75.173 12.9791 75.2472 13.1721 75.1256 13.3921C74.9541 13.7022 74.7954 14.0599 74.5304 14.2709C72.9879 15.5021 71.1893 15.9499 69.2474 15.9023C69.2148 15.8979 69.1831 15.8879 69.1539 15.8727C69.145 15.8598 69.1411 15.8456 69.1027 15.7967Z" fill="#F5F5F5"/>
<path fill-rule="evenodd" clip-rule="evenodd" d="M58.2525 6.60021C58.0617 6.68126 57.8685 6.77261 57.6777 6.84466C56.7599 7.18561 55.8305 7.49954 54.9242 7.86622C54.5062 8.02905 54.1264 8.2775 53.8091 8.59579C53.4917 8.91408 53.2437 9.29524 53.0809 9.71504C52.6968 10.6787 52.3717 11.6681 52.0222 12.6459C52.0101 12.7126 51.9894 12.7775 51.9608 12.8389C51.9057 12.9135 51.8238 13.0254 51.7585 13.0216C51.6932 13.0177 51.5908 12.9109 51.5639 12.8299C51.4167 12.3783 51.3194 11.9087 51.1441 11.47C50.8356 10.698 50.504 9.92605 50.1417 9.17596C49.8268 8.54039 49.2572 8.13897 48.6235 7.87908C47.707 7.5034 46.7661 7.18947 45.838 6.84338C45.646 6.77133 45.4617 6.67612 45.2748 6.59249C45.2748 6.55003 45.2748 6.50886 45.2684 6.46383C45.4642 6.37377 45.6524 6.27084 45.8572 6.19751C46.6419 5.91574 47.4318 5.65071 48.2139 5.36508C48.7672 5.17854 49.271 4.86769 49.6869 4.45615C50.1028 4.04461 50.4199 3.5432 50.6141 2.99004C50.9226 2.15247 51.1978 1.30332 51.4871 0.458026C51.4946 0.413853 51.507 0.370684 51.5243 0.329367C51.6011 0.217433 51.6868 0.10936 51.77 0C51.8634 0.104141 51.9422 0.220575 52.0043 0.346093C52.2001 0.935352 52.3883 1.52847 52.5586 2.12673C53.086 3.97814 54.2598 5.16952 56.1083 5.69316C56.6498 5.84755 57.181 6.03411 57.7136 6.21809C57.8979 6.28114 58.072 6.37892 58.2499 6.45997C58.2512 6.50757 58.2512 6.55389 58.2525 6.60021Z" fill="#F5F5F5"/>
<path fill-rule="evenodd" clip-rule="evenodd" d="M26.351 21.8901C26.1909 21.5478 26.0514 21.194 25.8684 20.8608C25.3294 19.8907 24.6215 19.1046 23.5053 18.8022C23.2445 18.7321 22.9764 18.6936 22.7065 18.6877C21.8488 18.6736 20.9912 18.6813 20.1322 18.6877C19.4922 18.6877 19.1568 19.0248 19.1542 19.6745C19.1542 20.7874 19.1542 21.8991 19.144 23.0107C19.1393 23.0822 19.119 23.1518 19.0845 23.2145C19.05 23.2773 19.0021 23.3316 18.9443 23.3735C17.6408 24.02 16.4437 24.8635 15.3945 25.8746V25.4603C15.3894 23.5545 15.3847 21.6486 15.3805 19.7427C15.3805 18.4137 14.9043 17.3355 13.7496 16.6125C13.6862 16.5669 13.6267 16.5161 13.5717 16.4606C13.5717 16.4606 13.5717 16.4401 13.5653 16.377C13.7304 16.3937 13.8904 16.3976 14.0479 16.4272C15.2998 16.6626 16.5428 16.9907 17.805 17.1181C19.5434 17.2918 21.2945 17.3252 23.0419 17.396C23.8304 17.4269 24.6228 17.4063 25.4126 17.396C25.6085 17.396 25.7147 17.4449 25.7813 17.6456C26.1756 18.8357 26.4559 20.0451 26.47 21.3047C26.464 21.4988 26.4477 21.6925 26.4214 21.8849L26.351 21.8901Z" fill="#F5F5F5"/>
<path fill-rule="evenodd" clip-rule="evenodd" d="M80.1091 22.963V26.5089L75.3113 26.2065C75.525 25.9428 75.6774 25.6919 75.886 25.5195C76.0702 25.3697 76.2827 25.2589 76.5107 25.194C77.2788 24.9585 77.545 24.5031 77.481 23.5961C77.4337 22.9322 77.481 22.8241 78.1531 22.8241C78.7995 22.8215 79.4473 22.9129 80.1091 22.963Z" fill="#F5F5F5"/>
<path fill-rule="evenodd" clip-rule="evenodd" d="M89.295 29.9274C87.9904 29.1161 86.6201 28.4167 85.1987 27.8367C85.1542 27.8125 85.1159 27.7784 85.0868 27.7368C85.0577 27.6953 85.0386 27.6476 85.031 27.5974C85.0182 26.7611 85.0233 25.9248 85.0233 25.0242C86.9755 26.2464 88.3503 27.8907 89.295 29.9274Z" fill="#F5F5F5"/>
<path d="M28.1571 38.3333H31.2386C31.3607 38.3701 31.4361 38.4347 31.4649 38.5268V38.5637C30.9549 38.8278 30.6999 39.1442 30.6999 39.5128V44.4982C30.6999 44.8668 30.9549 45.1832 31.4649 45.4474V45.4843C31.4433 45.5887 31.3679 45.6501 31.2386 45.6686H28.1571C28.0135 45.6501 27.9381 45.5887 27.9309 45.4843V45.4474C28.448 45.1832 28.7066 44.8668 28.7066 44.4982V39.5128C28.7066 39.1442 28.448 38.8278 27.9309 38.5637V38.5268C27.9596 38.4347 28.035 38.3701 28.1571 38.3333Z" fill="#F5F5F5"/>
<path d="M35.4788 38.3517H37.8492C38.0503 38.3333 38.194 38.3917 38.2802 38.5268C39.6593 41.3221 40.3488 42.7719 40.3488 42.8764H40.3919C41.5556 40.1732 42.2272 38.6896 42.4067 38.4254C42.4858 38.3701 42.5756 38.3456 42.6761 38.3517H44.3677C44.4036 38.3517 44.4503 38.3886 44.5078 38.4623V45.6501C43.8972 45.6563 43.4303 45.5703 43.1071 45.3921C42.791 45.2139 42.633 44.9651 42.633 44.6457V40.6094H42.5791L40.5428 45.4198L40.2519 45.4382C39.8137 45.4382 39.512 45.3215 39.3468 45.088C38.6932 43.5829 37.9857 42.004 37.2243 40.3514H37.1812V44.6457C37.1812 45.1003 36.9262 45.4105 36.4162 45.5764C36.2079 45.6378 36.0786 45.6624 36.0283 45.6501L35.9744 45.5764V39.7432C35.9744 39.1719 35.7051 38.7725 35.1664 38.5452C35.2023 38.4162 35.3064 38.3517 35.4788 38.3517ZM36.0175 45.6501C35.9888 45.6501 35.9744 45.6378 35.9744 45.6133C35.9744 45.5887 35.9744 45.5641 35.9744 45.5395C36.0319 45.5641 36.0606 45.5887 36.0606 45.6133C36.0606 45.644 36.0463 45.6563 36.0175 45.6501Z" fill="#F5F5F5"/>
<path d="M52.6815 40.4436H52.897C54.0534 40.4436 54.8184 41.0303 55.1919 42.2037C55.2565 42.5047 55.2889 42.7566 55.2889 42.9593V43.1344C55.2889 44.3201 54.7968 45.131 53.8128 45.5672C53.4105 45.6655 53.1053 45.7146 52.897 45.7146H52.6492C52.1032 45.7146 51.6687 45.5703 51.3454 45.2815V46.6085C51.3454 47.2597 50.9576 47.702 50.1818 47.9355C50.0669 47.9785 49.9089 48 49.7077 48H49.6754C49.618 48 49.5892 47.9785 49.5892 47.9355V42.0286C49.5892 41.5924 49.3522 41.2668 48.8781 41.0518V40.9873C48.914 40.9197 48.9787 40.8767 49.0721 40.8582C50.2788 40.6371 50.9791 40.5111 51.1731 40.4804C51.2377 40.505 51.2664 40.5388 51.2593 40.5818C51.2593 40.7907 51.2593 40.9166 51.2593 40.9596C51.683 40.6156 52.1571 40.4436 52.6815 40.4436ZM51.3454 41.66V44.4982C51.6184 44.7808 51.9524 44.9221 52.3475 44.9221C52.9652 44.9221 53.3279 44.4429 53.4357 43.4846V42.8764C53.4357 42.047 53.1843 41.5248 52.6815 41.3098L52.4337 41.2729H52.1858C51.8698 41.2729 51.5897 41.4019 51.3454 41.66Z" fill="#F5F5F5"/>
<path d="M61.8346 41.2176C61.5832 41.2176 61.3605 41.3313 61.1665 41.5586C60.9726 41.7798 60.8756 42.1576 60.8756 42.6921H63.0197C63.0413 42.2252 62.9371 41.8627 62.7073 41.6047C62.4774 41.3405 62.1865 41.2115 61.8346 41.2176ZM61.8453 40.5265C63.246 40.5265 64.1798 41.0825 64.6467 42.1944C64.7831 42.5569 64.8262 42.9409 64.776 43.3463C64.7831 43.4815 64.7185 43.5491 64.582 43.5491L60.908 43.5675C60.8577 43.5552 60.8397 43.5798 60.8541 43.6412C60.8613 44.3047 61.2527 44.704 62.0285 44.8392C62.8042 44.9744 63.5333 44.8331 64.2157 44.4153C64.2372 44.3969 64.2624 44.3938 64.2911 44.4061C64.3773 44.4614 64.4743 44.5443 64.582 44.6549C64.6251 44.6918 64.6323 44.7255 64.6036 44.7563C63.8566 45.475 62.9407 45.8099 61.8561 45.7607C60.5129 45.7177 59.6007 45.1494 59.1194 44.0559C59.0548 43.804 59.0224 43.5767 59.0224 43.374V43.0146C59.2523 41.3743 60.1933 40.5449 61.8453 40.5265Z" fill="#F5F5F5"/>
<path d="M70.6788 38.1306C70.7363 38.1428 70.7614 38.1766 70.7542 38.2319V42.8579L72.2303 41.4664C72.3381 41.1716 72.1657 40.9596 71.7132 40.8306V40.7937C71.7347 40.72 71.7886 40.6739 71.8748 40.6555H74.536C74.6222 40.6678 74.6761 40.7139 74.6977 40.7937V40.8306C74.4893 40.8736 74.2775 40.978 74.062 41.1439L72.5212 42.5262V42.5723C73.613 44.145 74.2739 45.0081 74.5037 45.1617C74.6905 45.303 74.9131 45.4105 75.1717 45.4843V45.558C75.1717 45.5887 75.1322 45.6225 75.0532 45.6593H74.1805C73.2108 45.6593 72.514 45.2785 72.0902 44.5167C71.7167 43.976 71.4869 43.6351 71.4007 43.4938C71.3648 43.4938 71.1493 43.6842 70.7542 44.0651V44.2402C70.7542 45.0327 70.2263 45.4935 69.1704 45.6225C69.0914 45.6348 69.0519 45.601 69.0519 45.5211V39.5128C69.0519 39.1749 68.8256 38.9016 68.3731 38.6927C68.3659 38.5821 68.4377 38.5114 68.5886 38.4807L70.6788 38.1306Z" fill="#F5F5F5"/>
<path d="M84.9289 38.3701C85.0223 38.3824 85.0798 38.4347 85.1013 38.5268V38.6466L81.438 44.5443V44.572H84.3148C84.7099 44.572 84.9936 44.4522 85.166 44.2126C85.2737 44.2371 85.3312 44.2894 85.3384 44.3692C85.1947 44.9529 85.0834 45.3399 85.0044 45.5303C84.9613 45.5795 84.8966 45.6041 84.8104 45.6041H78.5936C78.4643 45.561 78.4284 45.4781 78.4859 45.3552L82.3323 39.2732H80.102C79.5346 39.2855 79.1467 39.4145 78.9384 39.6603H78.8953C78.7875 39.648 78.7409 39.5927 78.7552 39.4944C78.8486 39.0029 78.924 38.6527 78.9815 38.4439C79.0102 38.3947 79.0533 38.3701 79.1108 38.3701H84.9289Z" fill="#F5F5F5"/>
<path d="M3.61437 11.1451H11.1717C11.3664 11.1451 11.5368 11.2761 11.6828 11.5381V31.0314C11.6828 34.2453 9.67482 36.5509 5.65886 37.9483C4.05247 38.385 2.33656 38.6033 0.511123 38.6033C0.243392 38.5684 0.0730175 38.4461 0 38.2365C3.55352 36.9963 5.33028 34.647 5.33028 31.1886V15.3896C5.33028 13.8525 4.36888 12.6473 2.44609 11.774V11.6691C2.61646 11.3198 3.00589 11.1451 3.61437 11.1451Z" fill="#F5F5F5"/>
</svg>
