<svg width="140" height="48" viewBox="0 0 140 48" fill="none" xmlns="http://www.w3.org/2000/svg">
<path d="M134.815 0H5.18518C2.32149 0 0 2.68629 0 6V42C0 45.3137 2.32149 48 5.18518 48H134.815C137.679 48 140 45.3137 140 42V6C140 2.68629 137.679 0 134.815 0Z" fill="#102133"/>
<path d="M17.6831 17.7358V28.7201L20.1596 29.5094V20.2972C20.1596 19.8653 20.3519 19.5768 20.6618 19.6769C21.0641 19.7902 21.1426 20.1865 21.1426 20.619V24.2971C22.6867 25.0439 23.9018 24.2958 23.9018 22.3235C23.9018 20.2972 23.1895 19.3971 21.0945 18.676C20.2678 18.3956 18.7363 17.9336 17.6844 17.7358H17.6831ZM20.6283 27.9026L24.6109 26.4786C25.0632 26.3171 25.1334 26.0873 24.7665 25.9665C24.3958 25.8463 23.731 25.8795 23.2756 26.0435L20.6157 26.9818V25.4889L20.7675 25.4357C20.7675 25.4357 21.5272 25.1728 22.6101 25.0507C23.6829 24.9381 25.0043 25.0689 26.0493 25.4645C27.2183 25.8407 27.3404 26.3859 27.0462 26.7615C26.7521 27.1371 26.0202 27.41 26.0202 27.41L20.6157 29.3548V27.917L20.6283 27.9026ZM13.1433 27.7536C11.9414 27.4125 11.7428 26.7095 12.2881 26.3008C12.7948 25.9346 13.6538 25.6429 13.6538 25.6429L17.2062 24.3829V25.8307L14.6602 26.7521C14.2142 26.9217 14.1383 27.1477 14.509 27.2691C14.8797 27.3912 15.5445 27.363 15.9911 27.194L17.2169 26.7521V28.0503C17.1404 28.0685 17.055 28.0779 16.9696 28.096C15.7437 28.3032 14.4426 28.2187 13.1509 27.7962L13.1433 27.7536Z" fill="white"/>
<path d="M55.323 25.7665V21.4295C55.323 20.5447 55.7336 19.9124 56.6107 19.9124H62.0184C62.0491 19.9124 62.0817 19.8797 62.0817 19.847V18.984C62.0817 18.9767 62.0817 18.9694 62.0763 18.9622H55.4568C54.0244 19.1438 53.3227 20.1486 53.3227 21.4295V25.7647C53.3227 26.6422 52.9013 27.2763 52.0386 27.2763H46.3343C46.3018 27.2763 46.2692 27.2981 46.2692 27.3418V28.2048C46.2692 28.2411 46.2873 28.2684 46.3108 28.2775H52.7928C54.4802 28.232 55.3122 27.151 55.3122 25.7592L55.323 25.7665ZM33.1136 28.2829H35.0126C35.0265 28.2767 35.0382 28.2665 35.0463 28.2536C35.0544 28.2406 35.0584 28.2255 35.0578 28.2102V25.4485C35.0578 24.5619 35.5552 23.9514 36.2804 23.9514H44.1007C45.8623 23.9514 46.7159 22.8612 46.7159 21.4368C46.7159 20.1541 46.016 19.1511 44.5818 18.9694H33.0792C33.0792 18.9749 33.0684 18.9785 33.0684 18.9876V19.8506C33.0684 19.8942 33.0919 19.916 33.1353 19.916H43.4406C44.316 19.916 44.7283 20.552 44.7283 21.4313C44.7283 22.3107 44.3178 22.9503 43.4406 22.9503H35.2875C34.0215 22.9503 33.0702 24.0259 33.0702 25.4449V28.2066C33.0702 28.2429 33.0883 28.272 33.1208 28.2793L33.1136 28.2829ZM62.0509 27.2836H72.4322C72.463 27.2836 72.4865 27.3054 72.4865 27.3272V28.2048C72.4865 28.2484 72.5172 28.2702 72.5498 28.2702H74.4217C74.4542 28.2702 74.4868 28.252 74.4868 28.2048V27.3418C74.4868 27.309 74.523 27.2763 74.5591 27.2763H76.4183C76.4618 27.2763 76.4835 27.2436 76.4835 27.2109V26.3316C76.4835 26.2988 76.4654 26.2661 76.4202 26.2661H74.5573C74.5211 26.2661 74.4904 26.2353 74.4904 26.2026V19.9124C74.4904 19.3982 74.3023 19.0712 73.984 18.9622H73.4414C73.2482 19.0152 73.0637 19.096 72.8934 19.202L61.7127 26.1371C61.2787 26.4097 61.1286 26.7149 61.2371 26.9457C61.3239 27.1346 61.5717 27.2763 62.0582 27.2763L62.0509 27.2836ZM63.6714 26.1262L72.3346 20.7427C72.3888 20.6991 72.4973 20.71 72.4973 20.8299V26.2135C72.4973 26.2462 72.4702 26.2789 72.4377 26.2789H63.7239C63.6515 26.2789 63.6154 26.2571 63.6063 26.2353C63.5955 26.1916 63.6154 26.1589 63.6714 26.1262Z" fill="white"/>
<path d="M103.243 28.272C103.571 28.272 103.897 28.2072 104.201 28.0814C104.505 27.9555 104.781 27.771 105.013 27.5384C105.245 27.3058 105.43 27.0297 105.555 26.7259C105.681 26.4221 105.746 26.0965 105.745 25.7677V21.4647C105.745 21.2666 105.784 21.0704 105.86 20.8875C105.936 20.7045 106.047 20.5382 106.187 20.3982C106.328 20.2582 106.494 20.1472 106.677 20.0716C106.86 19.996 107.056 19.9571 107.255 19.9574H112.111C112.12 19.9571 112.129 19.9552 112.137 19.9516C112.145 19.948 112.152 19.9429 112.158 19.9365C112.164 19.9301 112.169 19.9226 112.172 19.9144C112.175 19.9062 112.177 19.8974 112.177 19.8886V19.0273C112.177 19.01 112.17 18.9935 112.158 18.9812C112.145 18.969 112.129 18.9622 112.111 18.9622H106.259C105.93 18.9619 105.605 19.0265 105.301 19.1521C104.997 19.2778 104.721 19.4621 104.488 19.6945C104.256 19.9269 104.071 20.2029 103.945 20.5066C103.82 20.8103 103.755 21.1359 103.755 21.4647V25.7713C103.755 26.1712 103.596 26.5548 103.313 26.8378C103.031 27.1207 102.647 27.2799 102.247 27.2804H97.4574C97.4487 27.2804 97.4401 27.2822 97.432 27.2855C97.424 27.2889 97.4168 27.2939 97.4107 27.3001C97.4046 27.3064 97.3998 27.3138 97.3967 27.3219C97.3935 27.33 97.392 27.3387 97.3923 27.3474V28.2087C97.3923 28.226 97.3991 28.2425 97.4113 28.2547C97.4235 28.267 97.4401 28.2738 97.4574 28.2738L103.243 28.272ZM114.182 22.4581V19.0273C114.182 19.01 114.188 18.9935 114.201 18.9812C114.213 18.969 114.229 18.9622 114.247 18.9622H127.471C127.489 18.9622 127.505 18.969 127.518 18.9811C127.53 18.9933 127.538 19.0099 127.538 19.0273V19.8886C127.538 19.9065 127.531 19.9238 127.519 19.9366C127.506 19.9495 127.489 19.9569 127.471 19.9574H116.234C116.225 19.9574 116.217 19.9591 116.209 19.9623C116.201 19.9656 116.194 19.9704 116.188 19.9765C116.182 19.9825 116.177 19.9897 116.174 19.9976C116.17 20.0055 116.169 20.014 116.169 20.0225V22.2591C116.168 22.3535 116.186 22.4472 116.222 22.5345C116.258 22.6219 116.311 22.7013 116.378 22.7681C116.445 22.8349 116.524 22.8878 116.611 22.9237C116.699 22.9597 116.792 22.9779 116.887 22.9774H125.251C125.926 23.0169 126.561 23.3129 127.025 23.8049C127.489 24.2969 127.747 24.9476 127.747 25.6238C127.747 26.3001 127.489 26.9508 127.025 27.4427C126.561 27.9347 125.926 28.2307 125.251 28.2702H114.249C114.24 28.2705 114.231 28.2689 114.223 28.2658C114.215 28.2626 114.208 28.2579 114.201 28.2518C114.195 28.2457 114.19 28.2384 114.187 28.2304C114.183 28.2224 114.182 28.2138 114.182 28.2051V27.3474C114.181 27.3387 114.183 27.33 114.186 27.3219C114.189 27.3138 114.194 27.3064 114.2 27.3001C114.206 27.2939 114.213 27.2889 114.221 27.2855C114.229 27.2822 114.238 27.2804 114.247 27.2804H124.254C124.478 27.29 124.701 27.254 124.911 27.1747C125.121 27.0954 125.312 26.9744 125.474 26.819C125.635 26.6637 125.764 26.4771 125.851 26.2707C125.938 26.0643 125.983 25.8423 125.982 25.6181C125.981 25.3939 125.935 25.1723 125.846 24.9665C125.757 24.7608 125.627 24.5752 125.465 24.4211C125.302 24.2669 125.109 24.1474 124.899 24.0697C124.689 23.992 124.465 23.9577 124.241 23.969H115.689C115.491 23.969 115.294 23.9299 115.111 23.854C114.928 23.778 114.762 23.6666 114.622 23.5263C114.482 23.3859 114.371 23.2193 114.295 23.036C114.22 22.8527 114.181 22.6564 114.182 22.4581ZM94.5548 22.9774C94.9556 22.9774 95.3399 22.8182 95.6233 22.5349C95.9066 22.2515 96.0658 21.8672 96.0658 21.4665C96.0658 21.0658 95.9066 20.6815 95.6233 20.3981C95.3399 20.1148 94.9556 19.9556 94.5548 19.9556H84.3994C84.3819 19.9556 84.3652 19.9488 84.3527 19.9366C84.3402 19.9244 84.3329 19.9079 84.3324 19.8904V19.0291C84.3324 19.0204 84.3342 19.0118 84.3376 19.0038C84.341 18.9957 84.3459 18.9885 84.3522 18.9824C84.3584 18.9763 84.3658 18.9716 84.3739 18.9684C84.382 18.9652 84.3907 18.9637 84.3994 18.964H95.532C96.1843 18.9815 96.8041 19.253 97.2592 19.7205C97.7144 20.1881 97.9692 20.8149 97.9692 21.4674C97.9692 22.1199 97.7144 22.7467 97.2592 23.2143C96.8041 23.6819 96.1843 23.9533 95.532 23.9708H87.8304C87.6323 23.9708 87.4361 24.0099 87.2531 24.0858C87.0701 24.1616 86.9038 24.2728 86.7639 24.413C86.6239 24.5531 86.5129 24.7195 86.4372 24.9026C86.3616 25.0857 86.3228 25.2819 86.323 25.48V28.2177C86.323 28.2264 86.3212 28.2351 86.3179 28.2431C86.3145 28.2511 86.3095 28.2584 86.3033 28.2644C86.297 28.2705 86.2896 28.2753 86.2815 28.2784C86.2734 28.2816 86.2647 28.2831 86.256 28.2829H84.3994C84.39 28.2832 84.3807 28.2815 84.3721 28.2779C84.3635 28.2743 84.3557 28.2689 84.3494 28.262C84.343 28.2551 84.3382 28.247 84.3353 28.2381C84.3324 28.2292 84.3314 28.2198 84.3324 28.2105V25.4727C84.3348 24.8103 84.5998 24.1758 85.0693 23.7084C85.5388 23.241 86.1744 22.9788 86.8369 22.9792L94.5548 22.9774Z" fill="white"/>
<path d="M80.4082 17V30" stroke="white" stroke-width="0.245283"/>
</svg>
