<svg width="140" height="48" viewBox="0 0 140 48" fill="none" xmlns="http://www.w3.org/2000/svg">
<path d="M134.815 0H5.18518C2.32149 0 0 2.68629 0 6V42C0 45.3137 2.32149 48 5.18518 48H134.815C137.679 48 140 45.3137 140 42V6C140 2.68629 137.679 0 134.815 0Z" fill="#102133"/>
<rect x="20" y="11" width="12.025" height="12.025" fill="white"/>
<rect x="20" y="24.2275" width="12.025" height="12.025" fill="white"/>
<rect x="33.2266" y="24.2275" width="12.025" height="12.025" fill="white"/>
<rect x="33.2266" y="11" width="12.025" height="12.025" fill="white"/>
<path d="M67.4126 20.3257L64.9897 29.1665H63.3312L61.6482 22.9828C61.5783 22.7198 61.5351 22.4321 61.5187 22.1197H61.494C61.4735 22.4115 61.4242 22.6951 61.3461 22.9705L59.6568 29.1665H57.9614L55.4891 20.3257H57.0983L58.7012 26.7991C58.767 27.0703 58.8081 27.3539 58.8245 27.6499H58.8553C58.8718 27.4403 58.9293 27.1567 59.028 26.7991L60.8405 20.3257H62.351L64.0279 26.8484C64.0854 27.0703 64.1286 27.3334 64.1574 27.6375H64.182C64.1944 27.432 64.2416 27.1608 64.3238 26.8237L65.896 20.3257H67.4126ZM68.948 21.5279C68.7137 21.5279 68.5123 21.4518 68.3438 21.2997C68.1794 21.1477 68.0972 20.9545 68.0972 20.7202C68.0972 20.4859 68.1794 20.2907 68.3438 20.1345C68.5123 19.9783 68.7137 19.9003 68.948 19.9003C69.1905 19.9003 69.396 19.9783 69.5645 20.1345C69.733 20.2907 69.8172 20.4859 69.8172 20.7202C69.8172 20.9422 69.733 21.1333 69.5645 21.2936C69.396 21.4498 69.1905 21.5279 68.948 21.5279ZM69.657 29.1665H68.2266V22.8534H69.657V29.1665ZM76.9013 29.1665H75.471V25.6092C75.471 24.4296 75.0538 23.8398 74.2194 23.8398C73.7838 23.8398 73.4241 24.0042 73.1405 24.333C72.8569 24.6577 72.7151 25.0687 72.7151 25.566V29.1665H71.2786V22.8534H72.7151V23.9015H72.7398C73.2124 23.1041 73.8947 22.7054 74.7866 22.7054C75.473 22.7054 75.997 22.9294 76.3587 23.3774C76.7204 23.8213 76.9013 24.4645 76.9013 25.3071V29.1665ZM84.1394 29.1665H82.7091V28.0938H82.6844C82.2241 28.9076 81.5151 29.3145 80.5575 29.3145C79.7806 29.3145 79.158 29.0329 78.6894 28.4698C78.225 27.9026 77.9928 27.132 77.9928 26.1579C77.9928 25.1139 78.2496 24.2775 78.7634 23.6487C79.2813 23.0198 79.9697 22.7054 80.8287 22.7054C81.6795 22.7054 82.2981 23.0465 82.6844 23.7288H82.7091V19.8201H84.1394V29.1665ZM82.7276 26.2812V25.4551C82.7276 25.0071 82.5817 24.6269 82.2899 24.3145C81.9981 24.0021 81.6261 23.846 81.174 23.846C80.6397 23.846 80.2184 24.0453 79.9101 24.444C79.606 24.8427 79.4539 25.3955 79.4539 26.1024C79.4539 26.7436 79.5998 27.2512 79.8916 27.6252C80.1876 27.9951 80.5842 28.1801 81.0815 28.1801C81.5706 28.1801 81.9672 28.0013 82.2714 27.6437C82.5755 27.282 82.7276 26.8279 82.7276 26.2812ZM88.5539 29.3145C87.5798 29.3145 86.801 29.0206 86.2173 28.4328C85.6378 27.841 85.348 27.058 85.348 26.0839C85.348 25.0235 85.6501 24.1953 86.2543 23.5994C86.8626 23.0034 87.6805 22.7054 88.7081 22.7054C89.6945 22.7054 90.4631 22.9952 91.0138 23.5747C91.5646 24.1542 91.84 24.9577 91.84 25.9853C91.84 26.9923 91.542 27.7999 90.946 28.4082C90.3542 29.0124 89.5568 29.3145 88.5539 29.3145ZM88.6217 23.846C88.0628 23.846 87.6209 24.0412 87.2962 24.4317C86.9715 24.8221 86.8092 25.3605 86.8092 26.0469C86.8092 26.7087 86.9736 27.2306 87.3024 27.6129C87.6312 27.991 88.071 28.1801 88.6217 28.1801C89.1848 28.1801 89.6164 27.9931 89.9164 27.619C90.2206 27.245 90.3727 26.7128 90.3727 26.0223C90.3727 25.3277 90.2206 24.7913 89.9164 24.4132C89.6164 24.035 89.1848 23.846 88.6217 23.846ZM101.538 22.8534L99.6761 29.1665H98.178L97.0313 24.8879C96.9861 24.7235 96.9573 24.5385 96.945 24.333H96.9203C96.9121 24.4728 96.8751 24.6536 96.8093 24.8755L95.564 29.1665H94.0967L92.2409 22.8534H93.7206L94.8673 27.4033C94.9043 27.5389 94.929 27.7197 94.9413 27.9458H94.9844C94.9968 27.7732 95.0297 27.5882 95.0831 27.3909L96.3593 22.8534H97.7033L98.8377 27.4218C98.8747 27.5656 98.9014 27.7465 98.9178 27.9643H98.961C98.9692 27.8122 99 27.6314 99.0535 27.4218L100.176 22.8534H101.538ZM101.958 28.9692V27.6437C102.492 28.0506 103.082 28.2541 103.727 28.2541C104.59 28.2541 105.022 27.9992 105.022 27.4896C105.022 27.3457 104.985 27.2245 104.911 27.1258C104.837 27.0231 104.736 26.9327 104.609 26.8546C104.485 26.7765 104.337 26.7066 104.165 26.645C103.996 26.5833 103.807 26.5134 103.597 26.4353C103.338 26.3326 103.104 26.2237 102.895 26.1086C102.689 25.9935 102.516 25.864 102.377 25.7202C102.241 25.5722 102.138 25.4058 102.068 25.2208C101.999 25.0358 101.964 24.8201 101.964 24.5735C101.964 24.2693 102.036 24.0021 102.179 23.772C102.323 23.5377 102.516 23.3425 102.759 23.1863C103.001 23.026 103.277 22.9068 103.585 22.8287C103.893 22.7465 104.212 22.7054 104.541 22.7054C105.124 22.7054 105.646 22.7938 106.107 22.9705V24.222C105.663 23.9179 105.153 23.7658 104.578 23.7658C104.397 23.7658 104.232 23.7843 104.084 23.8213C103.941 23.8583 103.817 23.9097 103.715 23.9754C103.612 24.0412 103.532 24.1213 103.474 24.2159C103.417 24.3063 103.388 24.407 103.388 24.518C103.388 24.6536 103.417 24.7687 103.474 24.8632C103.532 24.9577 103.616 25.042 103.727 25.116C103.842 25.1859 103.978 25.2516 104.134 25.3133C104.294 25.3708 104.477 25.4345 104.683 25.5044C104.954 25.6154 105.196 25.7284 105.41 25.8435C105.628 25.9586 105.813 26.0901 105.965 26.238C106.117 26.3819 106.234 26.5504 106.316 26.7436C106.398 26.9327 106.44 27.1587 106.44 27.4218C106.44 27.7424 106.366 28.0218 106.218 28.2602C106.07 28.4986 105.872 28.6959 105.626 28.8521C105.379 29.0083 105.094 29.1233 104.769 29.1973C104.448 29.2754 104.109 29.3145 103.752 29.3145C103.061 29.3145 102.463 29.1994 101.958 28.9692ZM113.635 20.1284V29.1665H112.205V21.8793C111.946 22.0642 111.666 22.2225 111.366 22.354C111.07 22.4814 110.731 22.5944 110.349 22.6931V21.4724C110.587 21.3943 110.817 21.3121 111.039 21.2258C111.261 21.1395 111.479 21.0429 111.693 20.936C111.911 20.8291 112.128 20.7099 112.346 20.5784C112.568 20.4469 112.796 20.2969 113.031 20.1284H113.635ZM118.462 20.1284V29.1665H117.032V21.8793C116.773 22.0642 116.494 22.2225 116.194 22.354C115.898 22.4814 115.559 22.5944 115.176 22.6931V21.4724C115.415 21.3943 115.645 21.3121 115.867 21.2258C116.089 21.1395 116.307 21.0429 116.52 20.936C116.738 20.8291 116.956 20.7099 117.174 20.5784C117.396 20.4469 117.624 20.2969 117.858 20.1284H118.462Z" fill="white"/>
</svg>
